<?xml version="1.0" encoding="UTF-8" standalone="no"?>
<!DOCTYPE svg PUBLIC "-//W3C//DTD SVG 1.1//EN" "http://www.w3.org/Graphics/SVG/1.1/DTD/svg11.dtd">
<svg width="100%" height="100%" viewBox="0 0 642 288" version="1.1" xmlns="http://www.w3.org/2000/svg" xmlns:xlink="http://www.w3.org/1999/xlink" xml:space="preserve" xmlns:serif="http://www.serif.com/" style="fill-rule:evenodd;clip-rule:evenodd;stroke-linecap:round;stroke-linejoin:round;">
    <g transform="matrix(1,0,0,1,-288.54,-226.4)">
        <g>
            <g id="Geometries">
                <g transform="matrix(0.12,0,0,-0.12,0,842)">
                    <path d="M5834,4582L5834,4617" style="fill:none;fill-rule:nonzero;stroke:black;stroke-width:9px;"/>
                </g>
                <g transform="matrix(0.12,0,0,-0.12,0,842)">
                    <path d="M2421,3020L2421,2831" style="fill:none;fill-rule:nonzero;stroke:black;stroke-width:9px;"/>
                </g>
                <g transform="matrix(0.12,0,0,-0.12,0,842)">
                    <path d="M5834,4617L4322,4617" style="fill:none;fill-rule:nonzero;stroke:black;stroke-width:9px;"/>
                </g>
                <g transform="matrix(0.12,0,0,-0.12,0,842)">
                    <path d="M4724,3672L4724,3696" style="fill:none;fill-rule:nonzero;stroke:black;stroke-width:9px;"/>
                </g>
                <g transform="matrix(0.12,0,0,-0.12,0,842)">
                    <path d="M5610,4475L5610,3570" style="fill:none;fill-rule:nonzero;stroke:black;stroke-width:9px;"/>
                </g>
                <g transform="matrix(0.12,0,0,-0.12,0,842)">
                    <path d="M7676,2822L7676,2808" style="fill:none;fill-rule:nonzero;stroke:black;stroke-width:9px;"/>
                </g>
                <g transform="matrix(0.12,0,0,-0.12,0,842)">
                    <path d="M4275,4641L4322,4641" style="fill:none;fill-rule:nonzero;stroke:black;stroke-width:9px;"/>
                </g>
                <g transform="matrix(0.12,0,0,-0.12,0,842)">
                    <path d="M4653,3767L4629,3767" style="fill:none;fill-rule:nonzero;stroke:black;stroke-width:9px;"/>
                </g>
                <g transform="matrix(0.12,0,0,-0.12,0,842)">
                    <path d="M5225,4953L5223,4954L5222,4955L5220,4955L5216,4957L5215,4958L5213,4959L5211,4959L5203,4963L5201,4963L5197,4965L5195,4965L5191,4967L5189,4967L5185,4969L5183,4969L5181,4970L5178,4971L5176,4971L5174,4972L5172,4972L5169,4973L5167,4974L5165,4974L5162,4975L5160,4975L5158,4976L5155,4976L5153,4977L5148,4977L5146,4978L5143,4978L5141,4979L5136,4979L5133,4980L5128,4980L5126,4981L5118,4981L5115,4982L5105,4982L5102,4983L5055,4983L5052,4982L5041,4982L5039,4981L5031,4981L5028,4980L5023,4980L5021,4979L5016,4979L5013,4978L5011,4978L5009,4977L5004,4977L5001,4976L4999,4976L4996,4975L4994,4975L4992,4974L4989,4974L4985,4972L4982,4972L4980,4971L4978,4971L4976,4970L4974,4970L4971,4969L4969,4968L4967,4968L4963,4966L4961,4966L4955,4963L4953,4963L4947,4960L4945,4960L4944,4959L4936,4955L4935,4955L4931,4953" style="fill:none;fill-rule:nonzero;stroke:black;stroke-width:9px;"/>
                </g>
                <g transform="matrix(0.12,0,0,-0.12,0,842)">
                    <path d="M5432,4546L5432,4570" style="fill:none;fill-rule:nonzero;stroke:black;stroke-width:9px;"/>
                </g>
                <g transform="matrix(0.12,0,0,-0.12,0,842)">
                    <path d="M5202,4653L4954,4653" style="fill:none;fill-rule:nonzero;stroke:black;stroke-width:9px;"/>
                </g>
                <g transform="matrix(0.12,0,0,-0.12,0,842)">
                    <path d="M4322,4582L4322,4570" style="fill:none;fill-rule:nonzero;stroke:black;stroke-width:9px;"/>
                </g>
                <g transform="matrix(0.12,0,0,-0.12,0,842)">
                    <path d="M5527,4475L5503,4475" style="fill:none;fill-rule:nonzero;stroke:black;stroke-width:9px;"/>
                </g>
                <g transform="matrix(0.12,0,0,-0.12,0,842)">
                    <path d="M5881,4641L5905,4617" style="fill:none;fill-rule:nonzero;stroke:black;stroke-width:9px;"/>
                </g>
                <g transform="matrix(0.12,0,0,-0.12,0,842)">
                    <path d="M5550.46,4949.15C5550.22,4958.15 5548.98,4967.08 5546.76,4975.8" style="fill:none;fill-rule:nonzero;stroke:black;stroke-width:9px;"/>
                </g>
                <g transform="matrix(0.12,0,0,-0.12,0,842)">
                    <path d="M5527,4475L5527,3767" style="fill:none;fill-rule:nonzero;stroke:black;stroke-width:9px;"/>
                </g>
                <g transform="matrix(0.12,0,0,-0.12,0,842)">
                    <path d="M5486,3590L5521,3590" style="fill:none;fill-rule:nonzero;stroke:black;stroke-width:9px;"/>
                </g>
                <g transform="matrix(0.12,0,0,-0.12,0,842)">
                    <path d="M5527,3767L5503,3767" style="fill:none;fill-rule:nonzero;stroke:black;stroke-width:9px;"/>
                </g>
                <g transform="matrix(0.12,0,0,-0.12,0,842)">
                    <path d="M5503,3767L5503,4475" style="fill:none;fill-rule:nonzero;stroke:black;stroke-width:9px;"/>
                </g>
                <g transform="matrix(0.12,0,0,-0.12,0,842)">
                    <path d="M5539,3534L5539,3448" style="fill:none;fill-rule:nonzero;stroke:black;stroke-width:9px;"/>
                </g>
                <g transform="matrix(0.12,0,0,-0.12,0,842)">
                    <path d="M4618,3440L4618,3448" style="fill:none;fill-rule:nonzero;stroke:black;stroke-width:9px;"/>
                </g>
                <g transform="matrix(0.12,0,0,-0.12,0,842)">
                    <path d="M4653,4475L4629,4475" style="fill:none;fill-rule:nonzero;stroke:black;stroke-width:9px;"/>
                </g>
                <g transform="matrix(0.12,0,0,-0.12,0,842)">
                    <path d="M5834,4617L5834,4641" style="fill:none;fill-rule:nonzero;stroke:black;stroke-width:9px;"/>
                </g>
                <g transform="matrix(0.12,0,0,-0.12,0,842)">
                    <path d="M7735,3045L5533,3045" style="fill:none;fill-rule:nonzero;stroke:black;stroke-width:9px;"/>
                </g>
                <g transform="matrix(0.12,0,0,-0.12,0,842)">
                    <path d="M5202,4641L5834,4641" style="fill:none;fill-rule:nonzero;stroke:black;stroke-width:9px;"/>
                </g>
                <g transform="matrix(0.12,0,0,-0.12,0,842)">
                    <path d="M5365,4942L5362,4943L5346,4943L5343,4944L5327,4944L5324,4945L5312,4945L5309,4946L5297,4946L5294,4947L5282,4947L5279,4948L5270,4948L5268,4949L5259,4949L5257,4950L5249,4950L5247,4951L5238,4951L5236,4952L5229,4952L5227,4953L5225,4953" style="fill:none;fill-rule:nonzero;stroke:black;stroke-width:9px;"/>
                </g>
                <g transform="matrix(0.12,0,0,-0.12,0,842)">
                    <path d="M4653,4475L4653,3767" style="fill:none;fill-rule:nonzero;stroke:black;stroke-width:9px;"/>
                </g>
                <g transform="matrix(0.12,0,0,-0.12,0,842)">
                    <path d="M5486,3578L4671,3578" style="fill:none;fill-rule:nonzero;stroke:black;stroke-width:9px;"/>
                </g>
                <g transform="matrix(0.12,0,0,-0.12,0,842)">
                    <path d="M4724,4546L4724,4570" style="fill:none;fill-rule:nonzero;stroke:black;stroke-width:9px;"/>
                </g>
                <g transform="matrix(0.12,0,0,-0.12,0,842)">
                    <path d="M5533,3578L5533,3534" style="fill:none;fill-rule:nonzero;stroke:black;stroke-width:9px;"/>
                </g>
                <g transform="matrix(0.12,0,0,-0.12,0,842)">
                    <path d="M4623,3534L4618,3534" style="fill:none;fill-rule:nonzero;stroke:black;stroke-width:9px;"/>
                </g>
                <g transform="matrix(0.12,0,0,-0.12,0,842)">
                    <path d="M5432,3672L4724,3672" style="fill:none;fill-rule:nonzero;stroke:black;stroke-width:9px;"/>
                </g>
                <g transform="matrix(0.12,0,0,-0.12,0,842)">
                    <path d="M4724,3696L5432,3696" style="fill:none;fill-rule:nonzero;stroke:black;stroke-width:9px;"/>
                </g>
                <g transform="matrix(0.12,0,0,-0.12,0,842)">
                    <path d="M5202,4641L5202,4653" style="fill:none;fill-rule:nonzero;stroke:black;stroke-width:9px;"/>
                </g>
                <g transform="matrix(0.12,0,0,-0.12,0,842)">
                    <path d="M5610,3570L5610,3448" style="fill:none;fill-rule:nonzero;stroke:black;stroke-width:9px;"/>
                </g>
                <g transform="matrix(0.12,0,0,-0.12,0,842)">
                    <path d="M5432,3672L5432,3696" style="fill:none;fill-rule:nonzero;stroke:black;stroke-width:9px;"/>
                </g>
                <g transform="matrix(0.12,0,0,-0.12,0,842)">
                    <path d="M5535,5004L5535,5005L5534,5005" style="fill:none;fill-rule:nonzero;stroke:black;stroke-width:9px;"/>
                </g>
                <g transform="matrix(0.12,0,0,-0.12,0,842)">
                    <path d="M5539,3448L5598,3448" style="fill:none;fill-rule:nonzero;stroke:black;stroke-width:9px;"/>
                </g>
                <g transform="matrix(0.12,0,0,-0.12,0,842)">
                    <path d="M4547,3448L4547,3570" style="fill:none;fill-rule:nonzero;stroke:black;stroke-width:9px;"/>
                </g>
                <g transform="matrix(0.12,0,0,-0.12,0,842)">
                    <path d="M4547,3404L4547,3448" style="fill:none;fill-rule:nonzero;stroke:black;stroke-width:9px;"/>
                </g>
                <g transform="matrix(0.12,0,0,-0.12,0,842)">
                    <path d="M4618,3448L4618,3534" style="fill:none;fill-rule:nonzero;stroke:black;stroke-width:9px;"/>
                </g>
                <g transform="matrix(0.12,0,0,-0.12,0,842)">
                    <path d="M4547,3570L4463,3570" style="fill:none;fill-rule:nonzero;stroke:black;stroke-width:9px;"/>
                </g>
                <g transform="matrix(0.12,0,0,-0.12,0,842)">
                    <path d="M4931,4821L4931,4953" style="fill:none;fill-rule:nonzero;stroke:black;stroke-width:9px;"/>
                </g>
                <g transform="matrix(0.12,0,0,-0.12,0,842)">
                    <path d="M4629,3767L4629,4475" style="fill:none;fill-rule:nonzero;stroke:black;stroke-width:9px;"/>
                </g>
                <g transform="matrix(0.12,0,0,-0.12,0,842)">
                    <path d="M5432,4546L4724,4546" style="fill:none;fill-rule:nonzero;stroke:black;stroke-width:9px;"/>
                </g>
                <g transform="matrix(0.12,0,0,-0.12,0,842)">
                    <path d="M4558,3448L4618,3448" style="fill:none;fill-rule:nonzero;stroke:black;stroke-width:9px;"/>
                </g>
                <g transform="matrix(0.12,0,0,-0.12,0,842)">
                    <path d="M4463,3570L4458,3565" style="fill:none;fill-rule:nonzero;stroke:black;stroke-width:9px;"/>
                </g>
                <g transform="matrix(0.12,0,0,-0.12,0,842)">
                    <path d="M4558,4475L4558,3448" style="fill:none;fill-rule:nonzero;stroke:black;stroke-width:9px;"/>
                </g>
                <g transform="matrix(0.12,0,0,-0.12,0,842)">
                    <path d="M5598,3448L5598,4475" style="fill:none;fill-rule:nonzero;stroke:black;stroke-width:9px;"/>
                </g>
                <g transform="matrix(0.12,0,0,-0.12,0,842)">
                    <path d="M4623,3045L2421,3045" style="fill:none;fill-rule:nonzero;stroke:black;stroke-width:9px;"/>
                </g>
                <g transform="matrix(0.12,0,0,-0.12,0,842)">
                    <path d="M4251,4582L4251,4617" style="fill:none;fill-rule:nonzero;stroke:black;stroke-width:9px;"/>
                </g>
                <g transform="matrix(0.12,0,0,-0.12,0,842)">
                    <path d="M5595,5068L5593,5068L5592,5069L5588,5069L5588,5070L5584,5070L5584,5071L5579,5071L5579,5072L5575,5072L5575,5073L5571,5073L5570,5074L5567,5074L5566,5075L5562,5075L5561,5076L5557,5076L5557,5077L5552,5077L5552,5078L5548,5078L5547,5079L5543,5079L5543,5080L5538,5080L5538,5081L5534,5081L5533,5082L5529,5082L5528,5083L5523,5083L5523,5084L5518,5084L5518,5085L5513,5085L5513,5086L5508,5086L5508,5087L5503,5087L5503,5088L5498,5088L5498,5089L5492,5089L5492,5090L5487,5090L5486,5091L5481,5091L5481,5092L5475,5092L5475,5093L5469,5093L5469,5094L5467,5094" style="fill:none;fill-rule:nonzero;stroke:black;stroke-width:9px;"/>
                </g>
                <g transform="matrix(0.12,0,0,-0.12,0,842)">
                    <path d="M4635,3590L4671,3590" style="fill:none;fill-rule:nonzero;stroke:black;stroke-width:9px;"/>
                </g>
                <g transform="matrix(0.12,0,0,-0.12,0,842)">
                    <path d="M4712,4570L4724,4570" style="fill:none;fill-rule:nonzero;stroke:black;stroke-width:9px;"/>
                </g>
                <g transform="matrix(0.12,0,0,-0.12,0,842)">
                    <path d="M5225,4821L5225,4953" style="fill:none;fill-rule:nonzero;stroke:black;stroke-width:9px;"/>
                </g>
                <g transform="matrix(0.12,0,0,-0.12,0,842)">
                    <path d="M4322,4617L4322,4582" style="fill:none;fill-rule:nonzero;stroke:black;stroke-width:9px;"/>
                </g>
                <g transform="matrix(0.12,0,0,-0.12,0,842)">
                    <path d="M7676,2822L7698,2822L7705,2823L7712,2823L7727,2826L7733,2828L7735,2830L7735,2831" style="fill:none;fill-rule:nonzero;stroke:black;stroke-width:9px;"/>
                </g>
                <g transform="matrix(0.12,0,0,-0.12,0,842)">
                    <path d="M4452,4582L4452,4570" style="fill:none;fill-rule:nonzero;stroke:black;stroke-width:9px;"/>
                </g>
                <g transform="matrix(0.12,0,0,-0.12,0,842)">
                    <path d="M4452,4570L4322,4570" style="fill:none;fill-rule:nonzero;stroke:black;stroke-width:9px;"/>
                </g>
                <g transform="matrix(0.12,0,0,-0.12,0,842)">
                    <path d="M5598,3353L5539,3353" style="fill:none;fill-rule:nonzero;stroke:black;stroke-width:9px;"/>
                </g>
                <g transform="matrix(0.12,0,0,-0.12,0,842)">
                    <path d="M4623,3020L2421,3020" style="fill:none;fill-rule:nonzero;stroke:black;stroke-width:9px;"/>
                </g>
                <g transform="matrix(0.12,0,0,-0.12,0,842)">
                    <path d="M5905,4617L5905,4582" style="fill:none;fill-rule:nonzero;stroke:black;stroke-width:9px;"/>
                </g>
                <g transform="matrix(0.12,0,0,-0.12,0,842)">
                    <path d="M5834,4570L5704,4570" style="fill:none;fill-rule:nonzero;stroke:black;stroke-width:9px;"/>
                </g>
                <g transform="matrix(0.12,0,0,-0.12,0,842)">
                    <path d="M5533,3440L5533,3001" style="fill:none;fill-rule:nonzero;stroke:black;stroke-width:9px;"/>
                </g>
                <g transform="matrix(0.12,0,0,-0.12,0,842)">
                    <path d="M5550,4821L5326,4821" style="fill:none;fill-rule:nonzero;stroke:black;stroke-width:9px;"/>
                </g>
                <g transform="matrix(0.12,0,0,-0.12,0,842)">
                    <path d="M4931,4953L4928,4953L4926,4952L4920,4952L4918,4951L4910,4951L4908,4950L4899,4950L4897,4949L4887,4949L4885,4948L4876,4948L4874,4947L4863,4947L4860,4946L4847,4946L4845,4945L4831,4945L4828,4944L4815,4944L4813,4943L4793,4943L4791,4942" style="fill:none;fill-rule:nonzero;stroke:black;stroke-width:9px;"/>
                </g>
                <g transform="matrix(0.12,0,0,-0.12,0,842)">
                    <path d="M4322,4570L4263,4570" style="fill:none;fill-rule:nonzero;stroke:black;stroke-width:9px;"/>
                </g>
                <g transform="matrix(0.12,0,0,-0.12,0,842)">
                    <path d="M5704,4582L5834,4582" style="fill:none;fill-rule:nonzero;stroke:black;stroke-width:9px;"/>
                </g>
                <g transform="matrix(0.12,0,0,-0.12,0,842)">
                    <path d="M5539,4475L5539,3534" style="fill:none;fill-rule:nonzero;stroke:black;stroke-width:9px;"/>
                </g>
                <g transform="matrix(0.12,0,0,-0.12,0,842)">
                    <path d="M4618,3534L4618,4475" style="fill:none;fill-rule:nonzero;stroke:black;stroke-width:9px;"/>
                </g>
                <g transform="matrix(0.12,0,0,-0.12,0,842)">
                    <path d="M4322,4582L4452,4582" style="fill:none;fill-rule:nonzero;stroke:black;stroke-width:9px;"/>
                </g>
                <g transform="matrix(0.12,0,0,-0.12,0,842)">
                    <path d="M5432,4570L5444,4570" style="fill:none;fill-rule:nonzero;stroke:black;stroke-width:9px;"/>
                </g>
                <g transform="matrix(0.12,0,0,-0.12,0,842)">
                    <path d="M4724,4570L5432,4570" style="fill:none;fill-rule:nonzero;stroke:black;stroke-width:9px;"/>
                </g>
                <g transform="matrix(0.12,0,0,-0.12,0,842)">
                    <path d="M4251,4617L4275,4641" style="fill:none;fill-rule:nonzero;stroke:black;stroke-width:9px;"/>
                </g>
                <g transform="matrix(0.12,0,0,-0.12,0,842)">
                    <path d="M4542,4821L4606,4821" style="fill:none;fill-rule:nonzero;stroke:black;stroke-width:9px;"/>
                </g>
                <g transform="matrix(0.12,0,0,-0.12,0,842)">
                    <path d="M4322,4617L4322,4641" style="fill:none;fill-rule:nonzero;stroke:black;stroke-width:9px;"/>
                </g>
                <g transform="matrix(0.12,0,0,-0.12,0,842)">
                    <path d="M4547,3570L4547,4475" style="fill:none;fill-rule:nonzero;stroke:black;stroke-width:9px;"/>
                </g>
                <g transform="matrix(0.12,0,0,-0.12,0,842)">
                    <path d="M5550,4821L5614,4821" style="fill:none;fill-rule:nonzero;stroke:black;stroke-width:9px;"/>
                </g>
                <g transform="matrix(0.12,0,0,-0.12,0,842)">
                    <path d="M4322,4641L4954,4641" style="fill:none;fill-rule:nonzero;stroke:black;stroke-width:9px;"/>
                </g>
                <g transform="matrix(0.12,0,0,-0.12,0,842)">
                    <path d="M7747,2751L7735,2739" style="fill:none;fill-rule:nonzero;stroke:black;stroke-width:9px;"/>
                </g>
                <g transform="matrix(0.12,0,0,-0.12,0,842)">
                    <path d="M4954,4641L5202,4641" style="fill:none;fill-rule:nonzero;stroke:black;stroke-width:9px;"/>
                </g>
                <g transform="matrix(0.12,0,0,-0.12,0,842)">
                    <path d="M4618,3353L4558,3353" style="fill:none;fill-rule:nonzero;stroke:black;stroke-width:9px;"/>
                </g>
                <g transform="matrix(0.12,0,0,-0.12,0,842)">
                    <path d="M5550,4821L5550,4946" style="fill:none;fill-rule:nonzero;stroke:black;stroke-width:9px;"/>
                </g>
                <g transform="matrix(0.12,0,0,-0.12,0,842)">
                    <path d="M4606,4946L4606,4821" style="fill:none;fill-rule:nonzero;stroke:black;stroke-width:9px;"/>
                </g>
                <g transform="matrix(0.12,0,0,-0.12,0,842)">
                    <path d="M4542,4821L4542,4953" style="fill:none;fill-rule:nonzero;stroke:black;stroke-width:9px;"/>
                </g>
                <g transform="matrix(0.12,0,0,-0.12,0,842)">
                    <path d="M5614,4821L5614,4953" style="fill:none;fill-rule:nonzero;stroke:black;stroke-width:9px;"/>
                </g>
                <g transform="matrix(0.12,0,0,-0.12,0,842)">
                    <path d="M5326,4653L5326,4821" style="fill:none;fill-rule:nonzero;stroke:black;stroke-width:9px;"/>
                </g>
                <g transform="matrix(0.12,0,0,-0.12,0,842)">
                    <path d="M5610,3404L5693,3404" style="fill:none;fill-rule:nonzero;stroke:black;stroke-width:9px;"/>
                </g>
                <g transform="matrix(0.12,0,0,-0.12,0,842)">
                    <path d="M5693,3404L5693,3570" style="fill:none;fill-rule:nonzero;stroke:black;stroke-width:9px;"/>
                </g>
                <g transform="matrix(0.12,0,0,-0.12,0,842)">
                    <path d="M4830,4821L4830,4653" style="fill:none;fill-rule:nonzero;stroke:black;stroke-width:9px;"/>
                </g>
                <g transform="matrix(0.12,0,0,-0.12,0,842)">
                    <path d="M4954,4653L4954,4641" style="fill:none;fill-rule:nonzero;stroke:black;stroke-width:9px;"/>
                </g>
                <g transform="matrix(0.12,0,0,-0.12,0,842)">
                    <path d="M4429,4940L4429,4821" style="fill:none;fill-rule:nonzero;stroke:black;stroke-width:9px;"/>
                </g>
                <g transform="matrix(0.12,0,0,-0.12,0,842)">
                    <path d="M2409,3009L2421,3020" style="fill:none;fill-rule:nonzero;stroke:black;stroke-width:9px;"/>
                </g>
                <g transform="matrix(0.12,0,0,-0.12,0,842)">
                    <path d="M5834,4582L5834,4570" style="fill:none;fill-rule:nonzero;stroke:black;stroke-width:9px;"/>
                </g>
                <g transform="matrix(0.12,0,0,-0.12,0,842)">
                    <path d="M5727,4821L5727,4940" style="fill:none;fill-rule:nonzero;stroke:black;stroke-width:9px;"/>
                </g>
                <g transform="matrix(0.12,0,0,-0.12,0,842)">
                    <path d="M4463,3404L4547,3404" style="fill:none;fill-rule:nonzero;stroke:black;stroke-width:9px;"/>
                </g>
                <g transform="matrix(0.12,0,0,-0.12,0,842)">
                    <path d="M2480,2739L2421,2739" style="fill:none;fill-rule:nonzero;stroke:black;stroke-width:9px;"/>
                </g>
                <g transform="matrix(0.12,0,0,-0.12,0,842)">
                    <path d="M4458,3409L4463,3404" style="fill:none;fill-rule:nonzero;stroke:black;stroke-width:9px;"/>
                </g>
                <g transform="matrix(0.12,0,0,-0.12,0,842)">
                    <path d="M5727,4821L5614,4821" style="fill:none;fill-rule:nonzero;stroke:black;stroke-width:9px;"/>
                </g>
                <g transform="matrix(0.12,0,0,-0.12,0,842)">
                    <path d="M4618,3440L4623,3440" style="fill:none;fill-rule:nonzero;stroke:black;stroke-width:9px;"/>
                </g>
                <g transform="matrix(0.12,0,0,-0.12,0,842)">
                    <path d="M5693,3404L5698,3409" style="fill:none;fill-rule:nonzero;stroke:black;stroke-width:9px;"/>
                </g>
                <g transform="matrix(0.12,0,0,-0.12,0,842)">
                    <path d="M2480,2822L7676,2822" style="fill:none;fill-rule:nonzero;stroke:black;stroke-width:9px;"/>
                </g>
                <g transform="matrix(0.12,0,0,-0.12,0,842)">
                    <path d="M5698,3565L5693,3570" style="fill:none;fill-rule:nonzero;stroke:black;stroke-width:9px;"/>
                </g>
                <g transform="matrix(0.12,0,0,-0.12,0,842)">
                    <path d="M5693,3570L5610,3570" style="fill:none;fill-rule:nonzero;stroke:black;stroke-width:9px;"/>
                </g>
                <g transform="matrix(0.12,0,0,-0.12,0,842)">
                    <path d="M5539,3534L5533,3534" style="fill:none;fill-rule:nonzero;stroke:black;stroke-width:9px;"/>
                </g>
                <g transform="matrix(0.12,0,0,-0.12,0,842)">
                    <path d="M5533,3440L5539,3440" style="fill:none;fill-rule:nonzero;stroke:black;stroke-width:9px;"/>
                </g>
                <g transform="matrix(0.12,0,0,-0.12,0,842)">
                    <path d="M5533,3578L5521,3590" style="fill:none;fill-rule:nonzero;stroke:black;stroke-width:9px;"/>
                </g>
                <g transform="matrix(0.12,0,0,-0.12,0,842)">
                    <path d="M5486,3590L5486,3578" style="fill:none;fill-rule:nonzero;stroke:black;stroke-width:9px;"/>
                </g>
                <g transform="matrix(0.12,0,0,-0.12,0,842)">
                    <path d="M4628.65,5016.67C4626.12,5013.15 4623.77,5009.51 4621.62,5005.74" style="fill:none;fill-rule:nonzero;stroke:black;stroke-width:9px;"/>
                </g>
                <g transform="matrix(0.12,0,0,-0.12,0,842)">
                    <path d="M4251,4582L4322,4582" style="fill:none;fill-rule:nonzero;stroke:black;stroke-width:9px;"/>
                </g>
                <g transform="matrix(0.12,0,0,-0.12,0,842)">
                    <path d="M5698,3409L5698,3565" style="fill:none;fill-rule:nonzero;stroke:black;stroke-width:9px;"/>
                </g>
                <g transform="matrix(0.12,0,0,-0.12,0,842)">
                    <path d="M4671,3590L5486,3590" style="fill:none;fill-rule:nonzero;stroke:black;stroke-width:9px;"/>
                </g>
                <g transform="matrix(0.12,0,0,-0.12,0,842)">
                    <path d="M5326,4653L5202,4653" style="fill:none;fill-rule:nonzero;stroke:black;stroke-width:9px;"/>
                </g>
                <g transform="matrix(0.12,0,0,-0.12,0,842)">
                    <path d="M4954,4653L4830,4653" style="fill:none;fill-rule:nonzero;stroke:black;stroke-width:9px;"/>
                </g>
                <g transform="matrix(0.12,0,0,-0.12,0,842)">
                    <path d="M4671,3590L4671,3578" style="fill:none;fill-rule:nonzero;stroke:black;stroke-width:9px;"/>
                </g>
                <g transform="matrix(0.12,0,0,-0.12,0,842)">
                    <path d="M4635,3590L4623,3578" style="fill:none;fill-rule:nonzero;stroke:black;stroke-width:9px;"/>
                </g>
                <g transform="matrix(0.12,0,0,-0.12,0,842)">
                    <path d="M5539,3440L5539,3353" style="fill:none;fill-rule:nonzero;stroke:black;stroke-width:9px;"/>
                </g>
                <g transform="matrix(0.12,0,0,-0.12,0,842)">
                    <path d="M5546.24,4974.94C5543.71,4984.83 5539.95,4994.36 5535.03,5003.3" style="fill:none;fill-rule:nonzero;stroke:black;stroke-width:9px;"/>
                </g>
                <g transform="matrix(0.12,0,0,-0.12,0,842)">
                    <path d="M4558,3448L4547,3448" style="fill:none;fill-rule:nonzero;stroke:black;stroke-width:9px;"/>
                </g>
                <g transform="matrix(0.12,0,0,-0.12,0,842)">
                    <path d="M5486,3578L5486,2993" style="fill:none;fill-rule:nonzero;stroke:black;stroke-width:9px;"/>
                </g>
                <g transform="matrix(0.12,0,0,-0.12,0,842)">
                    <path d="M5533,3534L5533,3440" style="fill:none;fill-rule:nonzero;stroke:black;stroke-width:9px;"/>
                </g>
                <g transform="matrix(0.12,0,0,-0.12,0,842)">
                    <path d="M4623,3001L4623,3020" style="fill:none;fill-rule:nonzero;stroke:black;stroke-width:9px;"/>
                </g>
                <g transform="matrix(0.12,0,0,-0.12,0,842)">
                    <path d="M5614.01,4952.96C5625.79,5012.76 5617.4,5062.67 5594.68,5067.94" style="fill:none;fill-rule:nonzero;stroke:black;stroke-width:9px;"/>
                </g>
                <g transform="matrix(0.12,0,0,-0.12,0,842)">
                    <path d="M4623,3020L4623,3045" style="fill:none;fill-rule:nonzero;stroke:black;stroke-width:9px;"/>
                </g>
                <g transform="matrix(0.12,0,0,-0.12,0,842)">
                    <path d="M4618,3353L4618,3440" style="fill:none;fill-rule:nonzero;stroke:black;stroke-width:9px;"/>
                </g>
                <g transform="matrix(0.12,0,0,-0.12,0,842)">
                    <path d="M4623,3045L4623,3440" style="fill:none;fill-rule:nonzero;stroke:black;stroke-width:9px;"/>
                </g>
                <g transform="matrix(0.12,0,0,-0.12,0,842)">
                    <path d="M4623,3534L4623,3578" style="fill:none;fill-rule:nonzero;stroke:black;stroke-width:9px;"/>
                </g>
                <g transform="matrix(0.12,0,0,-0.12,0,842)">
                    <path d="M4622,5005L4621,5005L4621,5004" style="fill:none;fill-rule:nonzero;stroke:black;stroke-width:9px;"/>
                </g>
                <g transform="matrix(0.12,0,0,-0.12,0,842)">
                    <path d="M4623,3440L4623,3534" style="fill:none;fill-rule:nonzero;stroke:black;stroke-width:9px;"/>
                </g>
                <g transform="matrix(0.12,0,0,-0.12,0,842)">
                    <path d="M2409,2819L2409,3009" style="fill:none;fill-rule:nonzero;stroke:black;stroke-width:9px;"/>
                </g>
                <g transform="matrix(0.12,0,0,-0.12,0,842)">
                    <path d="M4671,3578L4671,2993" style="fill:none;fill-rule:nonzero;stroke:black;stroke-width:9px;"/>
                </g>
                <g transform="matrix(0.12,0,0,-0.12,0,842)">
                    <path d="M7676,2808L2480,2808" style="fill:none;fill-rule:nonzero;stroke:black;stroke-width:9px;"/>
                </g>
                <g transform="matrix(0.12,0,0,-0.12,0,842)">
                    <path d="M2480,2822L2480,2808" style="fill:none;fill-rule:nonzero;stroke:black;stroke-width:9px;"/>
                </g>
                <g transform="matrix(0.12,0,0,-0.12,0,842)">
                    <path d="M5613.73,4952.88C5591.46,4961.33 5568.84,4968.84 5545.93,4975.38" style="fill:none;fill-rule:nonzero;stroke:black;stroke-width:9px;"/>
                </g>
                <g transform="matrix(0.12,0,0,-0.12,0,842)">
                    <path d="M2480,2751L7676,2751" style="fill:none;fill-rule:nonzero;stroke:black;stroke-width:9px;"/>
                </g>
                <g transform="matrix(0.12,0,0,-0.12,0,842)">
                    <path d="M4653,3767C4653,3727.79 4684.79,3696 4724,3696" style="fill:none;fill-rule:nonzero;stroke:black;stroke-width:9px;"/>
                </g>
                <g transform="matrix(0.12,0,0,-0.12,0,842)">
                    <path d="M2480,2808L2480,2751" style="fill:none;fill-rule:nonzero;stroke:black;stroke-width:9px;"/>
                </g>
                <g transform="matrix(0.12,0,0,-0.12,0,842)">
                    <path d="M7676,2751L7676,2808" style="fill:none;fill-rule:nonzero;stroke:black;stroke-width:9px;"/>
                </g>
                <g transform="matrix(0.12,0,0,-0.12,0,842)">
                    <path d="M7747,2819L7747,2751" style="fill:none;fill-rule:nonzero;stroke:black;stroke-width:9px;"/>
                </g>
                <g transform="matrix(0.12,0,0,-0.12,0,842)">
                    <path d="M7735,2831L7747,2819" style="fill:none;fill-rule:nonzero;stroke:black;stroke-width:9px;"/>
                </g>
                <g transform="matrix(0.12,0,0,-0.12,0,842)">
                    <path d="M2409,2751L2409,2819" style="fill:none;fill-rule:nonzero;stroke:black;stroke-width:9px;"/>
                </g>
                <g transform="matrix(0.12,0,0,-0.12,0,842)">
                    <path d="M4251,4582C4251,4575.37 4256.37,4570 4263,4570" style="fill:none;fill-rule:nonzero;stroke:black;stroke-width:9px;"/>
                </g>
                <g transform="matrix(0.12,0,0,-0.12,0,842)">
                    <path d="M5893,4570L5834,4570" style="fill:none;fill-rule:nonzero;stroke:black;stroke-width:9px;"/>
                </g>
                <g transform="matrix(0.12,0,0,-0.12,0,842)">
                    <path d="M4546.5,4475C4546.5,4527.19 4504.19,4569.5 4452,4569.5" style="fill:none;fill-rule:nonzero;stroke:black;stroke-width:9px;"/>
                </g>
                <g transform="matrix(0.12,0,0,-0.12,0,842)">
                    <path d="M7676,2751L7676,2739" style="fill:none;fill-rule:nonzero;stroke:black;stroke-width:9px;"/>
                </g>
                <g transform="matrix(0.12,0,0,-0.12,0,842)">
                    <path d="M4629.5,3767C4629.5,3714.81 4671.81,3672.5 4724,3672.5" style="fill:none;fill-rule:nonzero;stroke:black;stroke-width:9px;"/>
                </g>
                <g transform="matrix(0.12,0,0,-0.12,0,842)">
                    <path d="M2409,2819L2421,2831" style="fill:none;fill-rule:nonzero;stroke:black;stroke-width:9px;"/>
                </g>
                <g transform="matrix(0.12,0,0,-0.12,0,842)">
                    <path d="M2480,2751L2480,2739" style="fill:none;fill-rule:nonzero;stroke:black;stroke-width:9px;"/>
                </g>
                <g transform="matrix(0.12,0,0,-0.12,0,842)">
                    <path d="M2409,2751L2421,2739" style="fill:none;fill-rule:nonzero;stroke:black;stroke-width:9px;"/>
                </g>
                <g transform="matrix(0.12,0,0,-0.12,0,842)">
                    <path d="M5598,3448L5610,3448" style="fill:none;fill-rule:nonzero;stroke:black;stroke-width:9px;"/>
                </g>
                <g transform="matrix(0.12,0,0,-0.12,0,842)">
                    <path d="M7735,3020L7735,3045" style="fill:none;fill-rule:nonzero;stroke:black;stroke-width:9px;"/>
                </g>
                <g transform="matrix(0.12,0,0,-0.12,0,842)">
                    <path d="M7676,2739L2480,2739" style="fill:none;fill-rule:nonzero;stroke:black;stroke-width:9px;"/>
                </g>
                <g transform="matrix(0.12,0,0,-0.12,0,842)">
                    <path d="M5598,3353L5598,3448" style="fill:none;fill-rule:nonzero;stroke:black;stroke-width:9px;"/>
                </g>
                <g transform="matrix(0.12,0,0,-0.12,0,842)">
                    <path d="M4463,3570L4463,3404" style="fill:none;fill-rule:nonzero;stroke:black;stroke-width:9px;"/>
                </g>
                <g transform="matrix(0.12,0,0,-0.12,0,842)">
                    <path d="M4671,2993L5486,2993" style="fill:none;fill-rule:nonzero;stroke:black;stroke-width:9px;"/>
                </g>
                <g transform="matrix(0.12,0,0,-0.12,0,842)">
                    <path d="M5704,4581.5C5645.18,4581.5 5597.5,4533.82 5597.5,4475" style="fill:none;fill-rule:nonzero;stroke:black;stroke-width:9px;"/>
                </g>
                <g transform="matrix(0.12,0,0,-0.12,0,842)">
                    <path d="M5834,4582L5905,4582" style="fill:none;fill-rule:nonzero;stroke:black;stroke-width:9px;"/>
                </g>
                <g transform="matrix(0.12,0,0,-0.12,0,842)">
                    <path d="M5598,4475L5610,4475" style="fill:none;fill-rule:nonzero;stroke:black;stroke-width:9px;"/>
                </g>
                <g transform="matrix(0.12,0,0,-0.12,0,842)">
                    <path d="M5467.36,5094.31C5209.44,5135.9 4946.52,5135.9 4688.61,5094.3" style="fill:none;fill-rule:nonzero;stroke:black;stroke-width:9px;"/>
                </g>
                <g transform="matrix(0.12,0,0,-0.12,0,842)">
                    <path d="M5533,3001L5533,3020" style="fill:none;fill-rule:nonzero;stroke:black;stroke-width:9px;"/>
                </g>
                <g transform="matrix(0.12,0,0,-0.12,0,842)">
                    <path d="M5905,4617L5834,4617" style="fill:none;fill-rule:nonzero;stroke:black;stroke-width:9px;"/>
                </g>
                <g transform="matrix(0.12,0,0,-0.12,0,842)">
                    <path d="M5325.92,5068.28C5285.87,5065.93 5247.14,5030.04 5230.84,4980.2C5227.93,4971.32 5225.82,4962.21 5224.54,4953.07" style="fill:none;fill-rule:nonzero;stroke:black;stroke-width:9px;"/>
                </g>
                <g transform="matrix(0.12,0,0,-0.12,0,842)">
                    <path d="M7735,3020L5533,3020" style="fill:none;fill-rule:nonzero;stroke:black;stroke-width:9px;"/>
                </g>
                <g transform="matrix(0.12,0,0,-0.12,0,842)">
                    <path d="M7735,2831L7735,3020" style="fill:none;fill-rule:nonzero;stroke:black;stroke-width:9px;"/>
                </g>
                <g transform="matrix(0.12,0,0,-0.12,0,842)">
                    <path d="M7735,3020L7747,3009" style="fill:none;fill-rule:nonzero;stroke:black;stroke-width:9px;"/>
                </g>
                <g transform="matrix(0.12,0,0,-0.12,0,842)">
                    <path d="M7747,3009L7747,2819" style="fill:none;fill-rule:nonzero;stroke:black;stroke-width:9px;"/>
                </g>
                <g transform="matrix(0.12,0,0,-0.12,0,842)">
                    <path d="M2409,2751L2480,2751" style="fill:none;fill-rule:nonzero;stroke:black;stroke-width:9px;"/>
                </g>
                <g transform="matrix(0.12,0,0,-0.12,0,842)">
                    <path d="M2421,3045L2409,3033" style="fill:none;fill-rule:nonzero;stroke:black;stroke-width:9px;"/>
                </g>
                <g transform="matrix(0.12,0,0,-0.12,0,842)">
                    <path d="M7747,3033L7735,3045" style="fill:none;fill-rule:nonzero;stroke:black;stroke-width:9px;"/>
                </g>
                <g transform="matrix(0.12,0,0,-0.12,0,842)">
                    <path d="M2409,3009L2409,3033" style="fill:none;fill-rule:nonzero;stroke:black;stroke-width:9px;"/>
                </g>
                <g transform="matrix(0.12,0,0,-0.12,0,842)">
                    <path d="M5467.1,5062.04C5467.1,5062.04 5467.1,5062.04 5467.1,5062.04C5458.34,5065.66 5449.01,5067.77 5439.39,5068.29" style="fill:none;fill-rule:nonzero;stroke:black;stroke-width:9px;"/>
                </g>
                <g transform="matrix(0.12,0,0,-0.12,0,842)">
                    <path d="M4547,3365L4547,3404" style="fill:none;fill-rule:nonzero;stroke:black;stroke-width:9px;"/>
                </g>
                <g transform="matrix(0.12,0,0,-0.12,0,842)">
                    <path d="M5704,4582L5704,4570" style="fill:none;fill-rule:nonzero;stroke:black;stroke-width:9px;"/>
                </g>
                <g transform="matrix(0.12,0,0,-0.12,0,842)">
                    <path d="M4322,4617L4251,4617" style="fill:none;fill-rule:nonzero;stroke:black;stroke-width:9px;"/>
                </g>
                <g transform="matrix(0.12,0,0,-0.12,0,842)">
                    <path d="M4830,4821L4606,4821" style="fill:none;fill-rule:nonzero;stroke:black;stroke-width:9px;"/>
                </g>
                <g transform="matrix(0.12,0,0,-0.12,0,842)">
                    <path d="M7735,2739L7676,2739" style="fill:none;fill-rule:nonzero;stroke:black;stroke-width:9px;"/>
                </g>
                <g transform="matrix(0.12,0,0,-0.12,0,842)">
                    <path d="M5539,3448L5539,3440" style="fill:none;fill-rule:nonzero;stroke:black;stroke-width:9px;"/>
                </g>
                <g transform="matrix(0.12,0,0,-0.12,0,842)">
                    <path d="M5610,3404L5610,3365" style="fill:none;fill-rule:nonzero;stroke:black;stroke-width:9px;"/>
                </g>
                <g transform="matrix(0.12,0,0,-0.12,0,842)">
                    <path d="M5834,4641L5881,4641" style="fill:none;fill-rule:nonzero;stroke:black;stroke-width:9px;"/>
                </g>
                <g transform="matrix(0.12,0,0,-0.12,0,842)">
                    <path d="M5610,3448L5610,3404" style="fill:none;fill-rule:nonzero;stroke:black;stroke-width:9px;"/>
                </g>
                <g transform="matrix(0.12,0,0,-0.12,0,842)">
                    <path d="M4558,4475L4547,4475" style="fill:none;fill-rule:nonzero;stroke:black;stroke-width:9px;"/>
                </g>
                <g transform="matrix(0.12,0,0,-0.12,0,842)">
                    <path d="M4558,3448L4558,3353" style="fill:none;fill-rule:nonzero;stroke:black;stroke-width:9px;"/>
                </g>
                <g transform="matrix(0.12,0,0,-0.12,0,842)">
                    <path d="M5326,4821L5225,4821" style="fill:none;fill-rule:nonzero;stroke:black;stroke-width:9px;"/>
                </g>
                <g transform="matrix(0.12,0,0,-0.12,0,842)">
                    <path d="M4931,4821L4830,4821" style="fill:none;fill-rule:nonzero;stroke:black;stroke-width:9px;"/>
                </g>
                <g transform="matrix(0.12,0,0,-0.12,0,842)">
                    <path d="M7676,2751L7747,2751" style="fill:none;fill-rule:nonzero;stroke:black;stroke-width:9px;"/>
                </g>
                <g transform="matrix(0.12,0,0,-0.12,0,842)">
                    <path d="M4931,4821L5225,4821" style="fill:none;fill-rule:nonzero;stroke:black;stroke-width:9px;"/>
                </g>
                <g transform="matrix(0.12,0,0,-0.12,0,842)">
                    <path d="M4542,4821L4429,4821" style="fill:none;fill-rule:nonzero;stroke:black;stroke-width:9px;"/>
                </g>
                <g transform="matrix(0.12,0,0,-0.12,0,842)">
                    <path d="M5533,3045L5533,3020" style="fill:none;fill-rule:nonzero;stroke:black;stroke-width:9px;"/>
                </g>
                <g transform="matrix(0.12,0,0,-0.12,0,842)">
                    <path d="M4458,3565L4458,3409" style="fill:none;fill-rule:nonzero;stroke:black;stroke-width:9px;"/>
                </g>
                <g transform="matrix(0.12,0,0,-0.12,0,842)">
                    <path d="M5533,3578L5486,3578" style="fill:none;fill-rule:nonzero;stroke:black;stroke-width:9px;"/>
                </g>
                <g transform="matrix(0.12,0,0,-0.12,0,842)">
                    <path d="M4671,3578L4623,3578" style="fill:none;fill-rule:nonzero;stroke:black;stroke-width:9px;"/>
                </g>
                <g transform="matrix(0.12,0,0,-0.12,0,842)">
                    <path d="M2421,3045L2421,3020" style="fill:none;fill-rule:nonzero;stroke:black;stroke-width:9px;"/>
                </g>
                <g transform="matrix(0.12,0,0,-0.12,0,842)">
                    <path d="M7747,3033L7747,3009" style="fill:none;fill-rule:nonzero;stroke:black;stroke-width:9px;"/>
                </g>
                <g transform="matrix(0.12,0,0,-0.12,0,842)">
                    <path d="M4620.97,5003.3C4616.05,4994.36 4612.29,4984.83 4609.76,4974.94" style="fill:none;fill-rule:nonzero;stroke:black;stroke-width:9px;"/>
                </g>
                <g transform="matrix(0.12,0,0,-0.12,0,842)">
                    <path d="M4609.24,4975.8C4607.02,4967.08 4605.78,4958.15 4605.54,4949.15" style="fill:none;fill-rule:nonzero;stroke:black;stroke-width:9px;"/>
                </g>
                <g transform="matrix(0.12,0,0,-0.12,0,842)">
                    <path d="M4706.38,4939.29C4734.61,4939.71 4762.84,4940.57 4791.04,4941.88" style="fill:none;fill-rule:nonzero;stroke:black;stroke-width:9px;"/>
                </g>
                <g transform="matrix(0.12,0,0,-0.12,0,842)">
                    <path d="M5534.38,5005.74C5532.23,5009.5 5529.88,5013.15 5527.35,5016.67" style="fill:none;fill-rule:nonzero;stroke:black;stroke-width:9px;"/>
                </g>
                <g transform="matrix(0.12,0,0,-0.12,0,842)">
                    <path d="M5365.15,4941.88C5393.35,4940.57 5421.57,4939.7 5449.8,4939.29" style="fill:none;fill-rule:nonzero;stroke:black;stroke-width:9px;"/>
                </g>
                <g transform="matrix(0.12,0,0,-0.12,0,842)">
                    <path d="M4688.94,5062.04C4695.54,5064.69 4702.03,5067.62 4708.37,5070.83" style="fill:none;fill-rule:nonzero;stroke:black;stroke-width:9px;"/>
                </g>
                <g transform="matrix(0.12,0,0,-0.12,0,842)">
                    <path d="M4610.18,4975.06C4587.27,4968.52 4564.64,4961.01 4542.36,4952.56" style="fill:none;fill-rule:nonzero;stroke:black;stroke-width:9px;"/>
                </g>
                <g transform="matrix(0.12,0,0,-0.12,0,842)">
                    <path d="M5447.71,5070.94C5454.1,5067.69 5460.63,5064.74 5467.29,5062.07" style="fill:none;fill-rule:nonzero;stroke:black;stroke-width:9px;"/>
                </g>
                <g transform="matrix(0.12,0,0,-0.12,0,842)">
                    <path d="M5526.5,4475C5526.5,4527.19 5484.19,4569.5 5432,4569.5" style="fill:none;fill-rule:nonzero;stroke:black;stroke-width:9px;"/>
                </g>
                <g transform="matrix(0.12,0,0,-0.12,0,842)">
                    <path d="M5893,4570C5899.63,4570 5905,4575.37 5905,4582" style="fill:none;fill-rule:nonzero;stroke:black;stroke-width:9px;"/>
                </g>
                <g transform="matrix(0.12,0,0,-0.12,0,842)">
                    <path d="M5432,3696C5471.21,3696 5503,3727.79 5503,3767" style="fill:none;fill-rule:nonzero;stroke:black;stroke-width:9px;"/>
                </g>
                <g transform="matrix(0.12,0,0,-0.12,0,842)">
                    <path d="M5503,4475C5503,4514.21 5471.21,4546 5432,4546" style="fill:none;fill-rule:nonzero;stroke:black;stroke-width:9px;"/>
                </g>
                <g transform="matrix(0.12,0,0,-0.12,0,842)">
                    <path d="M4724,4546C4684.79,4546 4653,4514.21 4653,4475" style="fill:none;fill-rule:nonzero;stroke:black;stroke-width:9px;"/>
                </g>
                <g transform="matrix(0.12,0,0,-0.12,0,842)">
                    <path d="M5432,3672.5C5484.19,3672.5 5526.5,3714.81 5526.5,3767" style="fill:none;fill-rule:nonzero;stroke:black;stroke-width:9px;"/>
                </g>
                <g transform="matrix(0.12,0,0,-0.12,0,842)">
                    <path d="M4724,4569.5C4671.81,4569.5 4629.5,4527.19 4629.5,4475" style="fill:none;fill-rule:nonzero;stroke:black;stroke-width:9px;"/>
                </g>
                <g transform="matrix(0.12,0,0,-0.12,0,842)">
                    <path d="M4546,3365C4546,3358.37 4551.37,3353 4558,3353" style="fill:none;fill-rule:nonzero;stroke:black;stroke-width:9px;"/>
                </g>
                <g transform="matrix(0.12,0,0,-0.12,0,842)">
                    <path d="M4712,4569.5C4659.81,4569.5 4617.5,4527.19 4617.5,4475" style="fill:none;fill-rule:nonzero;stroke:black;stroke-width:9px;"/>
                </g>
                <g transform="matrix(0.12,0,0,-0.12,0,842)">
                    <path d="M5704,4569.5C5651.81,4569.5 5609.5,4527.19 5609.5,4475" style="fill:none;fill-rule:nonzero;stroke:black;stroke-width:9px;"/>
                </g>
                <g transform="matrix(0.12,0,0,-0.12,0,842)">
                    <path d="M5598,3353C5604.63,3353 5610,3358.37 5610,3365" style="fill:none;fill-rule:nonzero;stroke:black;stroke-width:9px;"/>
                </g>
                <g transform="matrix(0.12,0,0,-0.12,0,842)">
                    <path d="M5538.5,4475C5538.5,4527.19 5496.19,4569.5 5444,4569.5" style="fill:none;fill-rule:nonzero;stroke:black;stroke-width:9px;"/>
                </g>
                <g transform="matrix(0.12,0,0,-0.12,0,842)">
                    <path d="M4558.5,4475C4558.5,4533.82 4510.82,4581.5 4452,4581.5" style="fill:none;fill-rule:nonzero;stroke:black;stroke-width:9px;"/>
                </g>
                <g transform="matrix(0.12,0,0,-0.12,0,842)">
                    <path d="M4716.61,5068.29C4706.99,5067.77 4697.66,5065.66 4688.9,5062.04" style="fill:none;fill-rule:nonzero;stroke:black;stroke-width:9px;"/>
                </g>
                <g transform="matrix(0.12,0,0,-0.12,0,842)">
                    <path d="M4931.46,4953.07C4930.18,4962.21 4928.07,4971.32 4925.17,4980.2C4908.87,5030.04 4870.13,5065.93 4830.08,5068.28" style="fill:none;fill-rule:nonzero;stroke:black;stroke-width:9px;"/>
                </g>
                <g transform="matrix(0.12,0,0,-0.12,0,842)">
                    <path d="M4561.32,5067.94C4538.6,5062.67 4530.21,5012.76 4541.99,4952.96" style="fill:none;fill-rule:nonzero;stroke:black;stroke-width:9px;"/>
                </g>
                <g transform="matrix(0.12,0,0,-0.12,0,842)">
                    <path d="M4689,5062L4688,5062L4687,5061L4685,5061L4685,5060L4683,5060L4683,5059L4681,5059L4681,5058L4679,5058L4679,5057L4677,5057L4677,5056L4675,5056L4675,5055L4673,5055L4673,5054L4671,5054L4671,5053L4669,5053L4669,5052L4668,5052L4668,5051L4666,5051L4666,5050L4664,5050L4664,5049L4663,5049L4663,5048L4661,5048L4661,5047L4660,5047L4660,5046L4659,5046L4658,5045L4657,5045L4657,5044L4656,5044L4656,5043L4655,5043L4654,5042L4653,5042L4653,5041L4652,5041L4652,5040L4651,5040L4651,5039L4650,5039L4649,5038L4648,5038L4648,5037L4647,5037L4647,5036L4646,5036L4646,5035L4645,5035L4645,5034L4644,5034L4644,5033L4643,5033L4643,5032L4642,5032L4642,5031L4641,5031L4641,5030L4640,5030L4640,5029L4639,5029L4639,5028L4638,5028L4638,5027L4637,5027L4637,5026L4636,5026L4636,5025L4634,5023L4634,5022L4633,5022L4633,5021L4632,5021L4632,5020L4631,5020L4631,5018L4630,5018L4630,5017L4629,5017L4629,5016" style="fill:none;fill-rule:nonzero;stroke:black;stroke-width:9px;"/>
                </g>
                <g transform="matrix(0.12,0,0,-0.12,0,842)">
                    <path d="M4606,4949L4606,4946" style="fill:none;fill-rule:nonzero;stroke:black;stroke-width:9px;"/>
                </g>
                <g transform="matrix(0.12,0,0,-0.12,0,842)">
                    <path d="M4707,4940L4640,4940L4638,4941L4624,4941L4623,4942L4615,4942L4614,4943L4610,4943L4609,4944L4607,4944L4607,4945L4606,4945L4606,4946" style="fill:none;fill-rule:nonzero;stroke:black;stroke-width:9px;"/>
                </g>
                <g transform="matrix(0.12,0,0,-0.12,0,842)">
                    <path d="M4716,5068L4715,5068L4714,5067L4713,5067L4712,5066L4711,5066L4710,5065L4709,5065L4709,5064L4708,5064L4708,5063L4707,5063L4707,5062L4706,5062L4706,5060L4708,5058L4709,5058L4710,5057L4712,5057L4713,5056L4716,5056L4717,5055L4728,5055L4729,5054L4742,5054L4744,5055L4759,5055L4761,5056L4769,5056L4770,5057L4777,5057L4779,5058L4785,5058L4787,5059L4792,5059L4793,5060L4796,5060L4798,5061L4802,5061L4804,5062L4807,5062L4808,5063L4811,5063L4813,5064L4815,5064L4817,5065L4819,5065L4821,5066L4823,5066L4824,5067L4827,5067L4828,5068L4830,5068" style="fill:none;fill-rule:nonzero;stroke:black;stroke-width:9px;"/>
                </g>
                <g transform="matrix(0.12,0,0,-0.12,0,842)">
                    <path d="M5550,4946L5550,4949" style="fill:none;fill-rule:nonzero;stroke:black;stroke-width:9px;"/>
                </g>
                <g transform="matrix(0.12,0,0,-0.12,0,842)">
                    <path d="M5527,5016L5527,5017L5526,5017L5526,5019L5525,5019L5525,5020L5524,5020L5524,5021L5523,5021L5523,5022L5522,5023L5522,5024L5521,5024L5521,5025L5520,5025L5520,5026L5519,5026L5519,5027L5518,5027L5518,5028L5517,5028L5517,5029L5516,5029L5516,5030L5515,5030L5515,5031L5514,5031L5514,5032L5513,5032L5513,5033L5512,5033L5512,5034L5511,5034L5511,5035L5510,5035L5510,5036L5509,5036L5509,5037L5508,5037L5508,5038L5507,5038L5507,5039L5506,5039L5506,5040L5504,5040L5504,5041L5503,5041L5503,5042L5502,5042L5502,5043L5501,5043L5500,5044L5499,5044L5499,5045L5498,5045L5498,5046L5496,5046L5496,5047L5495,5047L5495,5048L5493,5048L5493,5049L5492,5049L5492,5050L5490,5050L5490,5051L5489,5051L5489,5052L5487,5052L5487,5053L5485,5053L5485,5054L5483,5054L5483,5055L5481,5055L5481,5056L5480,5056L5479,5057L5478,5057L5477,5058L5475,5058L5475,5059L5473,5059L5473,5060L5471,5060L5471,5061L5469,5061L5469,5062L5467,5062" style="fill:none;fill-rule:nonzero;stroke:black;stroke-width:9px;"/>
                </g>
                <g transform="matrix(0.12,0,0,-0.12,0,842)">
                    <path d="M5326,5068L5328,5068L5330,5067L5332,5067L5333,5066L5336,5066L5337,5065L5339,5065L5341,5064L5344,5064L5345,5063L5348,5063L5349,5062L5352,5062L5354,5061L5358,5061L5360,5060L5363,5060L5365,5059L5370,5059L5371,5058L5378,5058L5379,5057L5386,5057L5387,5056L5396,5056L5397,5055L5413,5055L5414,5054L5427,5054L5429,5055L5439,5055L5440,5056L5444,5056L5444,5057L5447,5057L5447,5058L5449,5058L5449,5059L5450,5059L5450,5062L5449,5062L5449,5063L5448,5064L5447,5064L5447,5065L5446,5065L5445,5066L5444,5066L5444,5067L5442,5067L5441,5068L5440,5068" style="fill:none;fill-rule:nonzero;stroke:black;stroke-width:9px;"/>
                </g>
                <g transform="matrix(0.12,0,0,-0.12,0,842)">
                    <path d="M5550,4946L5550,4945L5549,4945L5549,4944L5547,4944L5546,4943L5542,4943L5541,4942L5533,4942L5532,4941L5519,4941L5517,4940L5450,4940" style="fill:none;fill-rule:nonzero;stroke:black;stroke-width:9px;"/>
                </g>
                <g transform="matrix(0.12,0,0,-0.12,0,842)">
                    <path d="M4830,5068L4832,5069L4835,5070L4837,5071L4840,5071L4842,5072L4845,5073L4847,5073L4850,5074L4852,5075L4855,5075L4857,5076L4860,5077L4862,5077L4868,5079L4870,5079L4876,5081L4878,5081L4881,5082L4884,5082L4887,5083L4890,5083L4896,5085L4899,5085L4902,5086L4905,5086L4908,5087L4911,5087L4914,5088L4917,5088L4920,5089L4923,5089L4926,5090L4929,5090L4932,5091L4938,5091L4941,5092L4947,5092L4950,5093L4956,5093L4958,5094L4965,5094L4968,5095L4974,5095L4978,5096L4984,5096L4988,5097L4998,5097L5001,5098L5014,5098L5017,5099L5037,5099L5040,5100L5078,5100" style="fill:none;fill-rule:nonzero;stroke:black;stroke-width:9px;"/>
                </g>
                <g transform="matrix(0.12,0,0,-0.12,0,842)">
                    <path d="M5078,5100L5114,5100L5118,5099L5138,5099L5142,5098L5155,5098L5158,5097L5167,5097L5170,5096L5180,5096L5183,5095L5190,5095L5193,5094L5200,5094L5203,5093L5209,5093L5212,5092L5215,5092L5218,5091L5224,5091L5227,5090L5229,5090L5232,5089L5235,5089L5238,5088L5244,5088L5247,5087L5250,5087L5256,5085L5259,5085L5262,5084L5265,5084L5267,5083L5270,5083L5273,5082L5275,5082L5281,5080L5284,5080L5290,5078L5292,5078L5298,5076L5300,5076L5303,5075L5305,5075L5308,5074L5312,5072L5315,5072L5319,5070L5322,5070L5326,5068" style="fill:none;fill-rule:nonzero;stroke:black;stroke-width:9px;"/>
                </g>
                <g transform="matrix(0.12,0,0,-0.12,0,842)">
                    <path d="M5440,5068L5434,5071L5433,5071L5429,5073L5428,5073L5424,5075L5423,5076L5422,5076L5420,5077L5419,5077L5417,5078L5416,5079L5415,5079L5413,5081L5411,5081L5410,5082L5409,5082L5408,5083L5407,5083L5405,5085L5404,5085L5403,5086L5402,5086L5400,5088L5399,5088L5396,5091L5395,5091L5395,5092L5394,5092L5394,5093L5393,5093L5393,5095L5392,5095L5392,5096L5393,5096L5393,5098L5395,5098L5395,5099L5398,5099L5399,5100L5422,5100L5423,5099L5433,5099L5434,5098L5441,5098L5443,5097L5448,5097L5450,5096L5456,5096L5458,5095L5462,5095L5464,5094L5467,5094" style="fill:none;fill-rule:nonzero;stroke:black;stroke-width:9px;"/>
                </g>
                <g transform="matrix(0.12,0,0,-0.12,0,842)">
                    <path d="M4689,5094L4693,5094L4696,5095L4700,5095L4702,5096L4706,5096L4708,5097L4713,5097L4715,5098L4722,5098L4723,5099L4732,5099L4734,5100L4757,5100L4758,5099L4761,5099L4761,5098L4763,5098L4763,5097L4764,5096L4764,5095L4763,5094L4763,5093L4762,5093L4762,5092L4761,5092L4761,5091L4760,5091L4760,5090L4759,5090L4759,5089L4758,5089L4757,5088L4756,5088L4753,5085L4752,5085L4751,5084L4750,5084L4749,5083L4748,5083L4747,5082L4746,5082L4745,5081L4743,5080L4742,5080L4741,5079L4739,5078L4738,5078L4737,5077L4735,5076L4734,5076L4732,5075L4731,5075L4730,5074L4726,5072L4725,5072L4723,5071L4722,5070L4720,5070L4716,5068" style="fill:none;fill-rule:nonzero;stroke:black;stroke-width:9px;"/>
                </g>
                <g transform="matrix(0.12,0,0,-0.12,0,842)">
                    <path d="M4689,5094L4687,5094L4687,5093L4681,5093L4681,5092L4675,5092L4675,5091L4670,5091L4669,5090L4664,5090L4664,5089L4659,5089L4659,5088L4653,5088L4653,5087L4648,5087L4648,5086L4643,5086L4643,5085L4638,5085L4638,5084L4633,5084L4633,5083L4628,5083L4628,5082L4623,5082L4623,5081L4618,5081L4618,5080L4613,5080L4613,5079L4609,5079L4609,5078L4604,5078L4604,5077L4599,5077L4599,5076L4595,5076L4595,5075L4590,5075L4590,5074L4586,5074L4586,5073L4583,5073L4581,5072L4577,5072L4577,5071L4573,5071L4572,5070L4568,5070L4568,5069L4564,5069L4564,5068L4561,5068" style="fill:none;fill-rule:nonzero;stroke:black;stroke-width:9px;"/>
                </g>
                <g transform="matrix(0.12,0,0,-0.12,0,842)">
                    <path d="M4542,4953L4538,4953L4535,4952L4527,4952L4525,4951L4515,4951L4513,4950L4505,4950L4503,4949L4493,4949L4491,4948L4483,4948L4482,4947L4474,4947L4472,4946L4463,4946L4462,4945L4454,4945L4453,4944L4447,4944L4446,4943L4439,4943L4438,4942L4432,4942L4432,4941L4429,4941L4429,4940" style="fill:none;fill-rule:nonzero;stroke:black;stroke-width:9px;"/>
                </g>
                <g transform="matrix(0.12,0,0,-0.12,0,842)">
                    <path d="M5727,4940L5727,4941L5724,4941L5723,4942L5718,4942L5717,4943L5711,4943L5710,4944L5703,4944L5702,4945L5694,4945L5692,4946L5685,4946L5683,4947L5674,4947L5672,4948L5664,4948L5662,4949L5655,4949L5653,4950L5642,4950L5640,4951L5631,4951L5628,4952L5619,4952L5617,4953L5614,4953" style="fill:none;fill-rule:nonzero;stroke:black;stroke-width:9px;"/>
                </g>
                <g transform="matrix(0.12,0,0,-0.12,0,842)">
                    <path d="M5727,4940L5727,4954L5726,4955L5726,4961L5725,4962L5725,4966L5724,4967L5724,4970L5723,4971L5723,4974L5722,4975L5722,4977L5721,4977L5721,4980L5720,4980L5720,4983L5719,4983L5719,4985L5718,4986L5718,4987L5717,4988L5717,4989L5716,4990L5716,4992L5715,4992L5715,4994L5714,4994L5714,4996L5713,4996L5713,4998L5712,4998L5712,4999L5711,5000L5711,5001L5710,5001L5710,5003L5709,5003L5709,5004L5708,5005L5708,5006L5707,5006L5707,5007L5706,5008L5706,5009L5705,5009L5705,5010L5703,5012L5703,5013L5702,5013L5702,5014L5701,5014L5701,5015L5699,5017L5699,5018L5698,5018L5698,5019L5697,5019L5697,5020L5696,5020L5696,5021L5695,5021L5695,5022L5694,5023L5693,5023L5693,5024L5692,5024L5692,5025L5691,5025L5691,5026L5690,5026L5690,5027L5689,5027L5689,5028L5688,5028L5688,5029L5687,5029L5687,5030L5686,5030L5686,5031L5685,5031L5685,5032L5684,5032L5683,5033L5682,5033L5682,5034L5681,5034L5681,5035L5680,5035L5680,5036L5678,5036L5678,5037L5677,5037L5677,5038L5675,5038L5675,5039L5674,5039L5674,5040L5672,5040L5672,5041L5671,5041L5671,5042L5669,5042L5669,5043L5668,5043L5668,5044L5666,5044L5666,5045L5664,5045L5664,5046L5662,5046L5662,5047L5660,5047L5660,5048L5658,5048L5658,5049L5656,5049L5656,5050L5654,5050L5654,5051L5651,5051L5651,5052L5649,5052L5649,5053L5646,5053L5646,5054L5644,5054L5643,5055L5641,5055L5641,5056L5638,5056L5638,5057L5635,5057L5634,5058L5631,5058L5631,5059L5628,5059L5628,5060L5625,5060L5624,5061L5621,5061L5621,5062L5617,5062L5617,5063L5613,5063L5613,5064L5609,5064L5609,5065L5605,5065L5605,5066L5601,5066L5601,5067L5597,5067L5597,5068L5595,5068" style="fill:none;fill-rule:nonzero;stroke:black;stroke-width:9px;"/>
                </g>
                <g transform="matrix(0.12,0,0,-0.12,0,842)">
                    <path d="M4561,5068L4559,5068L4559,5067L4555,5067L4555,5066L4551,5066L4551,5065L4547,5065L4547,5064L4543,5064L4543,5063L4539,5063L4539,5062L4536,5062L4535,5061L4532,5061L4532,5060L4528,5060L4528,5059L4525,5059L4525,5058L4522,5058L4522,5057L4519,5057L4519,5056L4516,5056L4516,5055L4513,5055L4513,5054L4510,5054L4510,5053L4507,5053L4507,5052L4505,5052L4505,5051L4503,5051L4502,5050L4500,5050L4500,5049L4498,5049L4498,5048L4496,5048L4496,5047L4494,5047L4494,5046L4492,5046L4492,5045L4490,5045L4490,5044L4489,5044L4489,5043L4487,5043L4487,5042L4485,5042L4485,5041L4484,5041L4484,5040L4482,5040L4482,5039L4481,5039L4481,5038L4479,5038L4479,5037L4478,5037L4478,5036L4477,5036L4476,5035L4475,5035L4475,5034L4474,5034L4474,5033L4473,5033L4473,5032L4472,5032L4471,5031L4470,5031L4470,5030L4469,5029L4468,5029L4468,5028L4467,5028L4467,5027L4466,5027L4466,5026L4465,5026L4465,5025L4464,5025L4464,5024L4463,5024L4463,5023L4462,5023L4462,5022L4461,5022L4461,5021L4460,5021L4460,5020L4459,5020L4459,5019L4458,5019L4458,5018L4456,5016L4456,5015L4455,5015L4455,5014L4454,5014L4454,5013L4453,5013L4453,5012L4451,5010L4451,5009L4450,5009L4450,5008L4449,5007L4449,5006L4448,5006L4448,5004L4447,5004L4447,5003L4446,5002L4446,5001L4445,5001L4445,5000L4444,4999L4444,4998L4443,4997L4443,4996L4442,4995L4442,4994L4441,4994L4441,4992L4440,4991L4440,4990L4439,4989L4439,4988L4438,4987L4438,4985L4437,4984L4437,4983L4436,4982L4436,4980L4435,4979L4435,4977L4434,4976L4434,4974L4433,4973L4433,4970L4432,4969L4432,4965L4431,4965L4431,4961L4430,4960L4430,4953L4429,4952L4429,4940" style="fill:none;fill-rule:nonzero;stroke:black;stroke-width:9px;"/>
                </g>
                <g transform="matrix(0.12,0,0,-0.12,0,842)">
                    <path d="M7747,2819L7747,2818L7745,2817L7743,2815L7740,2814L7738,2814L7737,2813L7735,2813L7733,2812L7729,2812L7727,2811L7721,2810L7716,2810L7709,2809L7703,2809L7694,2808L7676,2808" style="fill:none;fill-rule:nonzero;stroke:black;stroke-width:9px;"/>
                </g>
                <g transform="matrix(0.12,0,0,-0.12,0,842)">
                    <path d="M2480,2808L2462,2808L2453,2809L2447,2809L2441,2810L2436,2810L2434,2811L2429,2811L2425,2812L2420,2813L2416,2814L2413,2815L2409,2819" style="fill:none;fill-rule:nonzero;stroke:black;stroke-width:9px;"/>
                </g>
                <g transform="matrix(0.12,0,0,-0.12,0,842)">
                    <path d="M2421,2831L2422,2830L2423,2828L2429,2826L2444,2823L2451,2823L2458,2822L2480,2822" style="fill:none;fill-rule:nonzero;stroke:black;stroke-width:9px;"/>
                </g>
                <g transform="matrix(0.12,0,0,-0.12,0,842)">
                    <path d="M4671,2993L4655,2993L4653,2994L4643,2994L4641,2995L4636,2995L4635,2996L4632,2996" style="fill:none;fill-rule:nonzero;stroke:black;stroke-width:9px;"/>
                </g>
                <g transform="matrix(0.12,0,0,-0.12,0,842)">
                    <path d="M5533,3001L5533,3000L5532,3000L5532,2999L5531,2999L5531,2998L5529,2998L5528,2997L5526,2997L5525,2996L5521,2996L5520,2995L5515,2995L5514,2994L5503,2994L5502,2993L5486,2993" style="fill:none;fill-rule:nonzero;stroke:black;stroke-width:9px;"/>
                </g>
            </g>
        </g>
        <g>
            <g transform="matrix(0.12,0,0,-0.12,0,842)">
                <g id="_0" serif:id="0">
                    <path d="M0,0L0,7015L9920,7015L9920,0L0,0" style="fill:none;fill-rule:nonzero;"/>
                </g>
            </g>
        </g>
    </g>
</svg>
