<?xml version="1.0" encoding="utf-8"?>
<svg width="300.00000000mm" height="300.00000000mm" viewBox="0.00000000 0.00000000 300.00000000 300.00000000" id="svg2" version="1.1" xmlns="http://www.w3.org/2000/svg">
  <g id="13f8613f-3a18-426d-90e2-c15398f45caf" style="stroke:#000000;">
    <path style="stroke-width: 0.28; stroke-linecap: round; stroke-linejoin: round; stroke-opacity: 1; stroke: rgb(0, 0, 0);" d="M 153.810000,230.553285 L 154.572000,230.670933 L 185.390667,230.685861 L 186.279667,230.579080 L 186.279667,221.375799 L 155.495863,221.331667 L 155.267944,221.182321 C 155.142589,221.100181 154.975541,220.934560 154.896727,220.814274 L 154.753429,220.595573 L 154.753429,213.939760 L 154.896345,213.721642 C 154.974949,213.601677 155.162728,213.436056 155.313631,213.353595 L 155.588000,213.203667 L 173.960667,213.115283 L 174.003000,213.076667 L 174.003000,203.868012 L 166.256000,203.741702 L 154.826000,203.842342 L 153.992965,203.926245 C 152.321477,204.094599 150.914719,204.577928 149.653282,205.417260 C 147.582895,206.794847 146.190480,208.953314 145.584772,211.724100 L 145.446417,212.357000 L 145.373468,220.922967 L 145.505929,221.941143 C 146.127359,226.717822 149.128714,229.830524 153.810000,230.553285 "/>
    <path style="stroke-width: 0.28; stroke-linecap: round; stroke-linejoin: round; stroke-opacity: 1; stroke: rgb(0, 0, 0);" d="M 70.866655,227.512333 L 70.982026,230.602667 L 80.283222,230.602667 L 80.187441,198.556333 L 80.168721,197.498000 C 80.151389,196.518194 80.165705,196.408256 80.361667,196.016333 C 80.540466,195.658735 80.652200,195.553617 81.081235,195.339371 L 81.589136,195.085742 L 95.940333,195.144185 L 95.940333,185.729333 L 81.335333,185.731080 L 80.321699,185.819993 C 77.528483,186.065004 75.577747,186.891364 73.855787,188.559047 C 72.391841,189.976850 71.522576,191.721717 71.069896,194.151142 L 70.927441,194.915667 L 70.866655,227.512333 "/>
    <path style="stroke-width: 0.28; stroke-linecap: round; stroke-linejoin: round; stroke-opacity: 1; stroke: rgb(0, 0, 0);" d="M 100.415514,228.867000 L 100.528628,230.602667 L 109.834962,230.602667 L 109.804969,213.677228 L 109.968949,213.361245 C 110.063634,213.178792 110.261862,212.978353 110.438035,212.886927 L 110.743141,212.728591 L 132.558667,212.687985 L 133.366007,212.509516 C 137.787376,211.532138 140.670396,208.578905 141.236018,204.447838 L 141.330090,203.760774 L 141.471309,197.371000 L 141.388077,186.279667 L 141.148430,185.898667 L 132.000823,185.898667 L 132.025031,202.406765 L 131.865520,202.679887 C 131.777788,202.830104 131.578769,203.027320 131.423254,203.118145 L 131.140501,203.283282 L 109.698667,203.297667 L 108.725000,203.484680 C 106.473961,203.917041 104.792373,204.744724 103.371131,206.119874 C 102.013991,207.433001 101.168894,209.031007 100.654742,211.256333 L 100.478684,212.018333 L 100.415514,228.867000 "/>
    <path style="stroke-width: 0.28; stroke-linecap: round; stroke-linejoin: round; stroke-opacity: 1; stroke: rgb(0, 0, 0);" d="M 132.177871,215.574333 L 132.177667,230.602667 L 141.321667,230.602667 L 141.321667,210.939978 L 140.535100,211.691941 C 138.359984,213.771365 136.007467,214.953128 133.106277,215.423735 L 132.177871,215.574333 "/>
    <path style="stroke-width: 0.28; stroke-linecap: round; stroke-linejoin: round; stroke-opacity: 1; stroke: rgb(0, 0, 0);" d="M 236.825667,230.685675 L 244.826667,230.731365 L 245.055333,230.751682 C 245.792665,230.817196 246.577471,230.395693 246.894290,229.764016 L 247.046938,229.459667 L 251.398947,216.251667 L 258.183762,195.847000 L 258.423773,195.497354 C 258.770644,194.992035 259.090883,194.909053 259.518644,195.213645 C 259.741902,195.372619 260.278333,196.298354 260.278333,196.524663 L 260.278333,196.624946 L 267.967423,219.299667 L 271.371295,229.282567 L 271.537130,229.625117 C 271.859938,230.291908 272.136174,230.537417 272.644842,230.609613 L 273.105333,230.674971 L 281.614333,230.687333 L 281.614333,230.584821 L 281.169774,229.121000 L 270.676752,198.133000 L 268.815582,192.629667 L 268.363280,191.698333 C 267.710129,190.353433 267.131611,189.532196 266.121890,188.516561 L 265.231333,187.620789 L 264.681000,187.263757 C 263.598472,186.561461 262.537946,186.127092 261.209667,185.841973 C 260.219372,185.629404 257.987730,185.630957 256.993599,185.844908 C 253.582426,186.579040 251.007866,188.816111 249.558677,192.305218 L 249.248087,193.053000 L 239.723001,221.755000 L 236.825667,230.575130 L 236.825667,230.685675 "/>
    <path style="stroke-width: 0.28; stroke-linecap: round; stroke-linejoin: round; stroke-opacity: 1; stroke: rgb(0, 0, 0);" d="M 224.175175,230.599271 L 224.676000,230.677947 L 225.776667,230.647804 C 229.151125,230.555389 232.161997,228.926922 233.906433,226.250721 C 234.628675,225.142705 235.058111,224.054702 235.361832,222.563380 L 235.491979,221.924333 L 235.563561,187.380333 L 235.428667,185.941000 L 226.157667,185.897221 L 226.157667,221.100250 L 226.009500,221.142853 C 225.928008,221.166284 225.798985,221.211244 225.722782,221.242763 L 225.584230,221.300071 L 224.657904,219.977000 L 216.777772,204.398333 L 210.141587,191.275000 L 209.592694,190.447973 C 207.258580,186.931128 203.567398,185.226293 199.659326,185.860079 C 197.543903,186.203144 195.664553,187.176997 194.220916,188.678186 C 192.861276,190.092027 192.074956,191.597791 191.604756,193.688000 L 191.442864,194.407667 L 191.258106,197.963667 L 191.334053,230.306333 L 191.462450,230.602667 L 200.757269,230.602667 L 200.800000,195.169667 L 201.130094,195.169667 C 201.449118,195.169667 201.473513,195.190963 201.857491,195.804667 L 202.254793,196.439667 L 216.615511,224.887667 L 216.944662,225.458035 C 218.538843,228.220499 221.234626,230.137329 224.175175,230.599271 "/>
    <path style="stroke-width: 0.28; stroke-linecap: round; stroke-linejoin: round; stroke-opacity: 1; stroke: rgb(0, 0, 0);" d="M 100.512333,185.898667 L 100.512333,205.057475 L 101.263186,204.333651 C 103.445511,202.229883 105.975423,200.981350 108.957833,200.536275 L 109.656333,200.432035 L 109.656333,185.898667 L 100.512333,185.898667 "/>
    <path style="stroke-width: 0.28; stroke-linecap: round; stroke-linejoin: round; stroke-opacity: 1; stroke: rgb(0, 0, 0);" d="M 55.300333,185.814000 L 55.300333,195.042667 L 68.063833,195.042667 L 68.116750,194.778083 C 68.145854,194.632563 68.169667,194.400422 68.169667,194.262216 C 68.169667,194.124010 68.245455,193.639033 68.338085,193.184490 C 68.818476,190.827173 69.887988,188.810887 71.843470,186.576000 L 72.399082,185.941000 L 72.403000,185.814000 L 55.300333,185.814000 "/>
    <path style="stroke-width: 0.28; stroke-linecap: round; stroke-linejoin: round; stroke-opacity: 1; stroke: rgb(0, 0, 0);" d="M 149.915333,175.992334 L 150.592667,176.017795 C 150.965200,176.031799 151.670050,176.050901 152.159000,176.060246 L 153.048000,176.077235 L 154.614333,175.989534 C 156.772846,175.868675 158.643827,175.646042 160.350500,175.306972 L 160.795000,175.218661 L 160.795000,171.166667 L 143.946333,171.166667 L 143.946333,175.212550 L 144.198830,175.309442 L 145.617748,175.520067 C 146.398153,175.635911 147.684367,175.789561 148.476000,175.861513 L 149.915333,175.992334 "/>
    <path style="stroke-width: 0.28; stroke-linecap: round; stroke-linejoin: round; stroke-opacity: 1; stroke: rgb(0, 0, 0);" d="M 18.385667,230.685625 L 26.132667,230.741744 L 26.714356,230.718610 C 27.480646,230.688136 27.992645,230.437366 28.334000,229.925333 L 28.588000,229.544333 L 30.076994,224.972333 L 39.138657,197.656511 L 39.389602,196.999352 C 39.569618,196.527940 39.786136,196.170513 40.155629,195.734801 L 40.670710,195.127408 L 41.141046,195.698871 C 41.399731,196.013175 41.718565,196.505347 41.849566,196.792586 L 42.087749,197.314839 L 45.295256,206.853667 L 50.123989,221.077667 L 53.013330,229.503775 L 53.215901,229.820388 C 53.327315,229.994524 53.539560,230.251300 53.687557,230.391000 L 53.956641,230.645000 L 63.195589,230.695512 L 63.151858,230.581553 C 63.127807,230.518875 63.023119,230.164610 62.919220,229.794297 L 62.730311,229.121000 L 61.238798,224.718333 L 50.491996,192.968333 L 50.316121,192.526508 C 49.263279,189.881603 47.411947,187.776430 45.162339,186.666077 C 43.371327,185.782076 41.211511,185.458863 39.141051,185.765002 C 36.937163,186.090870 35.269650,186.902386 33.705395,188.410332 C 32.796477,189.286531 32.111108,190.232360 31.493495,191.462817 L 31.012323,192.421445 L 26.160397,207.107667 L 18.385667,230.488280 L 18.385667,230.685625 "/>
    <path style="stroke-width: 0.28; stroke-linecap: round; stroke-linejoin: round; stroke-opacity: 1; stroke: rgb(0, 0, 0);" d="M 145.439167,194.323000 L 145.375715,205.566933 L 146.163857,204.844096 C 148.578230,202.629781 150.974428,201.448975 153.913405,201.025250 L 154.656667,200.918091 L 154.771204,196.673378 L 154.869004,196.310177 C 155.008868,195.790759 155.168443,195.586314 155.571867,195.409679 L 155.926667,195.254333 L 185.136667,195.169667 L 185.575130,194.971338 C 185.816284,194.862256 186.082984,194.696368 186.167796,194.602697 L 186.322000,194.432386 L 186.371773,186.076196 L 185.898667,185.836907 L 164.224000,185.731827 L 153.810000,185.891852 L 153.154805,186.015033 C 151.677597,186.292758 150.182986,186.978088 149.024491,187.908923 C 147.367454,189.240330 146.226320,191.110230 145.659828,193.422372 L 145.439167,194.323000 "/>
    <path style="stroke-width: 0.28; stroke-linecap: round; stroke-linejoin: round; stroke-opacity: 1; stroke: rgb(0, 0, 0);" d="M 166.867401,172.527658 L 167.450701,172.648483 C 167.771515,172.714937 168.300700,172.757557 168.626667,172.743194 L 169.219333,172.717081 L 174.470026,169.916863 L 175.316013,169.429100 C 176.561203,168.711173 177.696762,167.993489 178.544512,167.388659 L 179.294667,166.853458 L 180.520630,165.856229 C 181.194910,165.307753 182.429739,164.192250 183.264695,163.377333 L 184.782798,161.895667 L 185.679399,160.872355 C 191.340031,154.411748 194.913722,146.421877 196.014506,137.765667 C 196.248090,135.928839 196.355048,134.149642 196.354656,132.107431 L 196.354311,130.315000 L 196.267426,129.129667 C 195.686308,121.201762 193.193348,113.806346 188.960996,107.455000 C 184.500150,100.760760 178.122463,95.335735 170.870333,92.066614 L 169.642667,91.513206 L 164.506927,89.448518 L 164.430006,89.525438 L 164.848156,91.283667 L 167.670170,99.665667 L 169.114071,103.729667 L 169.326590,104.153000 C 169.883374,105.262105 170.445728,105.869661 172.144112,107.196994 L 173.114000,107.954988 L 176.171742,111.011000 L 176.912270,111.942333 C 177.817875,113.081276 178.520392,114.069054 179.276222,115.266181 L 179.850444,116.175667 L 181.418803,119.308333 L 181.784537,120.239667 C 185.903939,130.729622 184.382736,142.135270 177.672782,151.068709 C 173.798703,156.226548 168.846090,159.820692 162.700000,161.934559 L 161.684000,162.283999 L 161.369477,162.501451 C 161.191064,162.624801 160.972769,162.888676 160.865039,163.111216 L 160.675123,163.503530 L 160.712408,166.975667 L 160.801718,167.643840 C 160.996893,169.104044 161.528318,169.826984 162.998570,170.632389 L 163.800667,171.071778 L 166.867401,172.527658 "/>
    <path style="stroke-width: 0.28; stroke-linecap: round; stroke-linejoin: round; stroke-opacity: 1; stroke: rgb(0, 0, 0);" d="M 135.437 172.576 C 135.683 172.639 136.198 172.675 136.665 172.661 C 137.41 172.639 137.537 172.608 138.401 172.236 C 139.45 171.784 141.501 170.732 142.61 170.076 C 143.365 169.629 143.674 169.318 143.901 168.773 L 144.031 168.463 L 144.031 162.658 L 143.205 162.376 C 139.537 161.123 135.706 159.152 133 157.123 C 126.132 151.975 122.188 144.897 120.896 135.405 L 120.711 134.04 L 120.708 128.537 L 120.858 127.479 C 121.182 125.185 121.657 123.236 122.395 121.169 L 122.788 120.07 L 123.623 118.375 C 124.176 117.254 124.773 116.208 125.387 115.285 L 126.315 113.89 L 126.848 113.212 C 127.849 111.939 129.03 110.658 130.328 109.437 C 131.042 108.766 132.178 107.664 132.854 106.989 L 134.083 105.76 L 134.653 104.957 C 135.447 103.839 136.324 102.034 136.752 100.639 C 136.945 100.011 137.292 98.887 137.524 98.142 L 137.944 96.787 L 140.332 89.8 L 140.26 89.728 L 139.406 89.93 C 137.28 90.432 133.215 92.173 130.403 93.786 C 124.08 97.411 118.654 102.732 114.807 108.967 C 113.52 111.051 112.41 113.238 111.502 115.498 C 111.502 115.498 109.1 122.868 108.582 127.202 L 108.433 128.452 L 108.429 135.141 L 108.537 136.115 C 108.839 138.816 109.32 141.434 109.913 143.597 C 113.255 155.786 121.352 165.719 132.474 171.272 L 133.744 171.906 L 134.379 172.186 C 134.728 172.34 135.205 172.516 135.437 172.576"/>
    <path style="stroke-width: 0.28; stroke-linecap: round; stroke-linejoin: round; stroke-opacity: 1; stroke: rgb(0, 0, 0);" d="M 129.764667,135.394609 L 138.400667,138.303806 L 138.598235,138.316000 L 140.462100,132.685667 L 143.202333,124.303667 L 144.636803,120.155000 L 146.978218,113.889667 L 147.373285,112.619667 C 148.488070,109.036033 149.187372,105.580393 149.592087,101.655333 L 149.736132,100.258333 L 149.722081,93.823667 L 149.616831,77.316602 L 149.436290,77.249815 C 149.336992,77.213083 149.247907,77.193372 149.238323,77.206014 L 149.220896,77.229000 L 129.813046,135.141000 L 129.764667,135.394609 "/>
    <path style="stroke-width: 0.28; stroke-linecap: round; stroke-linejoin: round; stroke-opacity: 1; stroke: rgb(0, 0, 0);" d="M 150.762000,162.031337 L 152.074333,162.099003 C 152.796117,162.136219 153.732370,162.172368 154.154896,162.179334 L 154.923126,162.192000 L 158.043333,162.009795 L 158.701729,161.895705 C 159.916694,161.685169 160.415390,161.291597 160.632844,160.371667 L 160.732912,159.948333 L 160.769253,156.138333 L 160.951932,155.610437 C 161.139581,155.068177 161.273598,154.819344 161.641667,154.329789 L 161.853333,154.048259 L 164.305653,151.905000 L 172.021577,145.047000 L 175.908000,141.677109 L 176.132166,141.372388 C 176.431321,140.965731 176.565844,140.433006 176.493556,139.941243 L 176.435113,139.543667 L 170.601275,122.187000 L 154.545376,74.435000 L 152.811196,69.355000 L 152.749337,69.284806 C 152.715315,69.246200 152.616196,69.398600 152.529073,69.623473 L 152.370667,70.032333 L 152.286000,141.999000 L 152.130597,142.464667 C 151.906847,143.135139 151.623821,143.585006 151.179942,143.975724 C 150.623932,144.465144 150.127141,144.607987 149.123993,144.566875 L 148.306667,144.533378 L 129.172000,138.119503 L 128.976759,138.050186 L 128.629880,138.743231 C 128.319883,139.362584 128.283198,139.500501 128.284859,140.040304 C 128.286908,140.705918 128.431342,141.112938 128.849692,141.632032 L 129.099823,141.942398 L 131.712000,144.188350 L 136.622667,148.612114 L 137.601589,149.459755 C 138.139996,149.925958 139.168696,150.779775 139.887589,151.357127 L 141.194667,152.406857 L 141.800205,153.018133 C 142.936490,154.165183 143.702474,155.488304 143.990324,156.801233 C 144.135585,157.463791 144.132912,158.347852 143.980269,160.125968 C 143.940772,160.586055 143.959978,160.787462 144.062196,160.985130 C 144.246867,161.342243 144.783264,161.576155 145.555000,161.636109 L 146.190000,161.685441 L 150.762000,162.031337 "/>
  </g>
</svg>