<svg width="651" height="555" viewBox="0 0 651 555" fill="none" xmlns="http://www.w3.org/2000/svg">
<path d="M0 481.048C0 472.79 1.85932 465.383 5.57796 458.826C9.2966 452.187 14.3491 447.006 20.7355 443.282C27.2026 439.558 34.357 437.696 42.1985 437.696C51.4142 437.696 59.4578 439.923 66.3292 444.375C73.2006 448.828 78.2127 455.142 81.3654 463.319H68.1481C65.8037 458.218 62.4085 454.292 57.9623 451.54C53.5969 448.787 48.3423 447.411 42.1985 447.411C36.2971 447.411 31.0021 448.787 26.3134 451.54C21.6247 454.292 17.9465 458.218 15.2788 463.319C12.611 468.338 11.2772 474.247 11.2772 481.048C11.2772 487.767 12.611 493.677 15.2788 498.777C17.9465 503.796 21.6247 507.682 26.3134 510.434C31.0021 513.187 36.2971 514.563 42.1985 514.563C48.3423 514.563 53.5969 513.227 57.9623 510.556C62.4085 507.803 65.8037 503.877 68.1481 498.777H81.3654C78.2127 506.872 73.2006 513.146 66.3292 517.599C59.4578 521.97 51.4142 524.156 42.1985 524.156C34.357 524.156 27.2026 522.335 20.7355 518.692C14.3491 514.968 9.2966 509.827 5.57796 503.27C1.85932 496.712 0 489.305 0 481.048Z" fill="black"/>
<path d="M117.072 524.52C110.847 524.52 105.188 523.104 100.095 520.27C95.0833 517.437 91.1221 513.43 88.2119 508.249C85.3825 502.987 83.9678 496.915 83.9678 490.034C83.9678 483.233 85.4229 477.243 88.3331 472.062C91.3242 466.8 95.3662 462.792 100.459 460.04C105.552 457.206 111.251 455.79 117.557 455.79C123.862 455.79 129.562 457.206 134.654 460.04C139.747 462.792 143.749 466.759 146.659 471.94C149.65 477.121 151.146 483.153 151.146 490.034C151.146 496.915 149.61 502.987 146.538 508.249C143.547 513.43 139.464 517.437 134.291 520.27C129.117 523.104 123.377 524.52 117.072 524.52ZM117.072 514.806C121.033 514.806 124.752 513.875 128.228 512.013C131.704 510.151 134.493 507.358 136.595 503.634C138.777 499.91 139.869 495.377 139.869 490.034C139.869 484.691 138.818 480.157 136.716 476.433C134.614 472.709 131.865 469.957 128.47 468.176C125.075 466.314 121.397 465.383 117.436 465.383C113.394 465.383 109.675 466.314 106.28 468.176C102.965 469.957 100.297 472.709 98.2765 476.433C96.2555 480.157 95.2449 484.691 95.2449 490.034C95.2449 495.458 96.215 500.032 98.1552 503.756C100.176 507.479 102.844 510.272 106.158 512.134C109.473 513.915 113.111 514.806 117.072 514.806Z" fill="black"/>
<path d="M188.33 455.668C196.414 455.668 202.962 458.137 207.974 463.076C212.986 467.933 215.492 474.976 215.492 484.205V523.428C209.465 523.428 204.579 518.535 204.579 512.499V485.784C204.579 479.145 202.922 474.086 199.607 470.605C196.293 467.043 191.766 465.262 186.026 465.262C180.206 465.262 175.557 467.083 172.081 470.726C168.686 474.369 166.988 479.671 166.988 486.634V523.428C160.894 523.428 155.954 518.48 155.954 512.377V456.883H166.988V466.354C169.171 462.954 172.122 460.323 175.84 458.461C179.64 456.599 183.803 455.668 188.33 455.668Z" fill="black"/>
<path d="M219.694 490.034C219.694 483.153 221.068 477.162 223.816 472.062C226.565 466.881 230.365 462.873 235.215 460.04C240.146 457.206 245.765 455.79 252.07 455.79C260.235 455.79 266.945 457.773 272.199 461.74C277.535 465.707 281.051 471.212 282.749 478.255H270.865C269.734 474.207 267.51 471.009 264.196 468.662C260.962 466.314 256.92 465.14 252.07 465.14C245.765 465.14 240.672 467.326 236.791 471.697C232.911 475.988 230.971 482.1 230.971 490.034C230.971 498.048 232.911 504.241 236.791 508.613C240.672 512.984 245.765 515.17 252.07 515.17C256.92 515.17 260.962 514.037 264.196 511.77C267.43 509.503 269.653 506.265 270.865 502.056H282.749C280.97 508.856 277.413 514.32 272.078 518.449C266.742 522.497 260.073 524.52 252.07 524.52C245.765 524.52 240.146 523.104 235.215 520.27C230.365 517.437 226.565 513.43 223.816 508.249C221.068 503.067 219.694 496.996 219.694 490.034Z" fill="black"/>
<path d="M348.402 487.605C348.402 489.71 348.28 491.936 348.038 494.284H294.926C295.33 500.841 297.553 505.982 301.595 509.706C305.718 513.349 310.69 515.17 316.51 515.17C321.28 515.17 325.241 514.077 328.394 511.892C331.627 509.625 333.891 506.629 335.184 502.906H347.068C345.289 509.301 341.732 514.523 336.397 518.57C331.061 522.537 324.433 524.52 316.51 524.52C310.205 524.52 304.546 523.104 299.534 520.27C294.603 517.437 290.722 513.43 287.893 508.249C285.063 502.987 283.649 496.915 283.649 490.034C283.649 483.153 285.023 477.121 287.772 471.94C290.52 466.759 294.36 462.792 299.291 460.04C304.303 457.206 310.043 455.79 316.51 455.79C322.816 455.79 328.394 457.166 333.244 459.918C338.095 462.671 341.813 466.476 344.4 471.333C347.068 476.109 348.402 481.533 348.402 487.605ZM337.003 485.298C337.003 481.088 336.074 477.486 334.214 474.49C332.355 471.414 329.808 469.107 326.575 467.569C323.422 465.95 319.905 465.14 316.025 465.14C310.447 465.14 305.678 466.921 301.717 470.483C297.836 474.045 295.613 478.983 295.047 485.298H337.003Z" fill="black"/>
<path d="M364.301 469.147C366.484 465.342 369.717 462.185 374.002 459.676C378.367 457.085 383.419 455.79 389.159 455.79C395.06 455.79 400.396 457.206 405.165 460.04C410.016 462.873 413.815 466.881 416.564 472.062C419.312 477.162 420.687 483.112 420.687 489.912C420.687 496.632 419.312 502.622 416.564 507.884C413.815 513.146 410.016 517.235 405.165 520.149C400.396 523.063 395.06 524.52 389.159 524.52C383.5 524.52 378.488 523.266 374.123 520.756C369.838 518.166 366.564 514.968 364.301 511.163V555C358.207 555 353.266 550.053 353.266 543.95V456.883H364.301V469.147ZM409.41 489.912C409.41 484.893 408.399 480.522 406.378 476.798C404.357 473.074 401.608 470.24 398.132 468.297C394.737 466.354 390.978 465.383 386.855 465.383C382.813 465.383 379.054 466.395 375.578 468.419C372.183 470.362 369.434 473.236 367.332 477.04C365.311 480.764 364.301 485.095 364.301 490.034C364.301 495.053 365.311 499.465 367.332 503.27C369.434 506.994 372.183 509.868 375.578 511.892C379.054 513.834 382.813 514.806 386.855 514.806C390.978 514.806 394.737 513.834 398.132 511.892C401.608 509.868 404.357 506.994 406.378 503.27C408.399 499.465 409.41 495.012 409.41 489.912Z" fill="black"/>
<path d="M483.504 524.52C478.411 524.52 473.844 523.67 469.802 521.97C465.76 520.189 462.567 517.761 460.222 514.684C457.878 511.527 456.584 507.925 456.342 503.877H467.74C468.064 507.196 469.6 509.908 472.348 512.013C475.178 514.118 478.856 515.17 483.383 515.17C487.587 515.17 490.901 514.239 493.326 512.377C495.751 510.515 496.964 508.168 496.964 505.334C496.964 502.42 495.671 500.274 493.084 498.898C490.497 497.441 486.495 496.024 481.079 494.648C476.148 493.353 472.106 492.058 468.953 490.762C465.881 489.386 463.213 487.403 460.95 484.812C458.767 482.141 457.676 478.66 457.676 474.369C457.676 470.969 458.686 467.852 460.707 465.019C462.728 462.185 465.598 459.959 469.317 458.34C473.035 456.64 477.279 455.79 482.049 455.79C489.405 455.79 495.347 457.652 499.874 461.376C504.401 465.1 506.826 470.2 507.15 476.676H496.115C495.873 473.195 494.458 470.402 491.871 468.297C489.365 466.192 485.97 465.14 481.685 465.14C477.724 465.14 474.571 465.99 472.227 467.69C469.883 469.39 468.71 471.616 468.71 474.369C468.71 476.555 469.398 478.376 470.772 479.833C472.227 481.21 474.005 482.343 476.107 483.233C478.29 484.043 481.281 484.974 485.081 486.026C489.85 487.322 493.73 488.617 496.721 489.912C499.713 491.127 502.259 492.989 504.361 495.498C506.543 498.008 507.675 501.286 507.756 505.334C507.756 508.977 506.746 512.256 504.725 515.17C502.704 518.085 499.834 520.392 496.115 522.092C492.477 523.711 488.274 524.52 483.504 524.52Z" fill="black"/>
<path d="M440.029 464.151V505.283C440.029 508.679 440.753 511.098 442.201 512.541C443.649 513.9 446.163 514.579 449.741 514.579H458.303V524.384H447.824C441.349 524.384 436.493 522.898 433.256 519.927C430.018 516.956 428.4 512.074 428.4 505.283V464.151H419.326V454.6H428.4V437.027H440.029V454.6H458.303V464.151H440.029Z" fill="black"/>
<path d="M518.033 460.464C518.753 453.164 521.555 447.428 526.438 443.257C531.401 439.086 537.925 437 546.01 437C551.213 437 555.656 437.963 559.338 439.888C563.021 441.733 565.822 444.26 567.744 447.468C569.665 450.677 570.625 454.327 570.625 458.418C570.625 463.552 569.064 468.004 565.943 471.774C562.821 475.464 558.058 477.67 551.654 478.392V479.114C557.818 480.077 562.781 482.443 566.543 486.214C570.305 489.984 572.186 495.037 572.186 501.375C572.186 508.113 569.945 513.648 565.462 517.98C561.06 522.231 554.576 524.357 546.01 524.357C537.925 524.357 531.241 522.191 525.958 517.859C520.755 513.528 517.633 507.391 516.592 499.449H521.875C522.836 505.385 525.397 510.239 529.56 514.009C533.723 517.699 539.206 519.544 546.01 519.544C552.894 519.544 558.098 517.819 561.62 514.37C565.222 510.921 567.023 506.468 567.023 501.014C567.023 494.436 564.502 489.502 559.459 486.214C554.495 482.925 547.371 481.28 538.085 481.28H535.804V476.587H538.205C556.297 476.507 565.342 470.571 565.342 458.779C565.342 453.645 563.621 449.514 560.179 446.385C556.817 443.257 552.054 441.693 545.89 441.693C539.886 441.693 534.803 443.297 530.641 446.506C526.558 449.634 524.117 454.287 523.316 460.464H518.033Z" fill="black"/>
<path fill-rule="evenodd" clip-rule="evenodd" d="M639.031 449.127C631.134 441.455 619.864 437.62 605.221 437.62H580.912V442.322H586.465H605.221C618.301 442.322 628.254 445.745 635.082 452.592C641.91 459.439 645.324 468.967 645.324 481.176C645.324 493.302 641.91 502.789 635.082 509.636C628.254 516.401 618.301 519.783 605.221 519.783H586.465V453.728H580.912V524.485H605.221C619.864 524.485 631.134 520.69 639.031 513.101C647.01 505.512 651 494.87 651 481.176C651 467.482 647.01 456.799 639.031 449.127Z" fill="black"/>
<path fill-rule="evenodd" clip-rule="evenodd" d="M320.523 2.91904C325.858 -1.0331 333.167 -0.966029 338.429 3.08337L537.201 156.051C544.952 162.017 544.929 173.715 537.155 179.65L487.949 217.212L524.453 245.269C532.214 251.234 532.191 262.944 524.407 268.879L338.05 410.957C332.809 414.953 325.563 415.019 320.25 411.12L126.641 269.041C118.567 263.116 118.544 251.061 126.595 245.104L164.627 216.967L114.063 179.814C105.998 173.888 105.975 161.845 114.017 155.888L320.523 2.91904ZM338.092 293.529C332.849 297.532 325.595 297.598 320.279 293.692L165.148 179.707C157.083 173.781 157.06 161.738 165.102 155.781L320.23 40.8697C325.565 36.9175 332.874 36.9846 338.136 41.034L487.455 155.946C495.206 161.911 495.183 173.61 487.409 179.545L338.092 293.529ZM337.904 392.055C332.663 396.051 325.418 396.117 320.105 392.218L152.18 268.988C144.106 263.062 144.082 251.007 152.134 245.051L177.404 226.355L320.57 331.549C325.886 335.455 333.14 335.388 338.384 331.386L475.507 226.71L499.583 245.216C507.344 251.181 507.321 262.891 499.537 268.825L337.904 392.055Z" fill="black"/>
</svg>
